<?xml version="1.0" encoding="UTF-8" ?>
<!DOCTYPE svg PUBLIC "-//W3C//DTD SVG 1.1//EN" "http://www.w3.org/Graphics/SVG/1.1/DTD/svg11.dtd">
<svg width="1000pt" height="357pt" viewBox="0 0 1000 357" version="1.1" xmlns="http://www.w3.org/2000/svg">
<g id="#e90029ff">
<path fill="#e90029" opacity="1.00" d=" M 231.80 82.67 C 236.60 80.54 242.26 82.65 245.73 86.27 C 250.37 91.11 252.94 97.49 255.15 103.71 C 261.56 123.23 263.13 143.94 269.44 163.48 C 271.18 168.76 272.76 174.28 276.17 178.77 C 278.81 182.55 285.23 182.76 287.99 179.02 C 290.10 176.49 291.02 173.24 292.03 170.16 C 294.95 160.43 296.87 150.32 301.12 141.04 C 302.88 137.64 305.73 133.48 310.14 134.13 C 314.11 134.41 315.89 138.59 317.31 141.73 C 321.16 151.50 322.74 161.97 325.88 171.96 C 327.15 175.90 329.31 180.14 333.46 181.63 C 323.95 182.28 314.33 180.92 304.91 182.61 C 300.67 183.37 297.91 187.03 296.55 190.88 C 292.07 203.06 289.26 215.88 283.53 227.58 C 281.16 232.09 277.61 237.21 271.98 237.37 C 266.79 237.70 262.91 233.51 260.77 229.25 C 255.45 218.96 252.80 207.56 247.93 197.08 C 245.16 191.58 241.54 186.02 235.92 183.09 C 231.74 180.92 226.48 181.89 222.98 184.91 C 215.71 190.97 211.96 200.08 209.09 208.86 C 204.70 224.94 201.56 241.36 196.33 257.21 C 194.35 262.73 192.27 268.70 187.50 272.47 C 181.94 276.79 172.99 275.91 168.52 270.40 C 165.11 266.25 163.42 261.04 161.74 256.03 C 157.52 242.24 154.90 228.05 151.55 214.05 C 149.51 205.66 147.57 197.11 143.56 189.41 C 141.42 185.42 137.63 181.49 132.74 181.85 C 127.30 182.33 123.98 187.33 121.95 191.87 C 117.50 202.16 116.77 213.68 112.06 223.87 C 110.63 226.59 108.37 229.85 104.92 229.67 C 101.71 230.05 99.50 227.11 98.22 224.58 C 95.29 218.42 94.31 211.59 92.98 204.96 C 91.84 199.57 91.72 193.82 89.03 188.88 C 87.50 185.82 84.83 183.54 82.11 181.56 C 89.40 181.70 96.70 181.69 103.99 181.60 C 108.04 181.61 111.75 179.29 114.22 176.20 C 117.57 171.99 119.36 166.82 120.82 161.71 C 123.81 150.37 125.81 138.76 129.78 127.70 C 131.55 123.18 133.59 118.57 137.07 115.09 C 139.44 112.67 142.89 111.61 146.23 111.67 C 151.31 112.92 154.74 117.30 156.95 121.78 C 163.69 134.93 165.45 149.80 169.55 163.83 C 171.46 169.52 173.92 175.49 178.79 179.27 C 183.05 182.60 189.70 182.52 193.52 178.54 C 201.10 171.36 204.81 161.05 207.15 151.10 C 210.50 132.40 213.05 113.26 220.68 95.70 C 223.19 90.58 226.31 85.03 231.80 82.67 Z" />
</g>
<g id="#38272a63">
<path fill="#38272a" opacity="0.39" d=" M 703.64 104.61 C 713.29 97.94 725.61 96.29 737.04 97.79 C 744.60 98.80 752.23 101.74 757.44 107.49 C 761.94 112.31 763.91 119.06 763.69 125.57 C 757.43 125.77 751.16 125.79 744.91 125.58 C 744.28 121.43 743.32 116.91 739.73 114.27 C 733.39 109.67 724.48 110.25 717.77 113.75 C 711.10 117.50 707.72 125.02 706.40 132.25 C 705.00 141.33 705.06 151.24 709.58 159.49 C 713.10 166.13 720.61 170.04 728.01 170.02 C 733.35 169.94 738.84 170.54 743.99 168.76 C 744.00 163.30 744.01 157.83 743.98 152.37 C 738.84 152.31 733.70 152.36 728.56 152.35 C 727.68 147.65 728.19 142.83 728.25 138.09 C 739.59 137.38 751.00 137.94 762.37 137.80 C 762.87 151.59 762.40 165.41 762.61 179.21 C 754.94 182.71 746.36 183.23 738.09 184.02 C 728.11 184.45 717.82 183.91 708.37 180.41 C 698.24 176.62 690.76 167.42 688.02 157.09 C 684.79 144.64 685.41 130.88 691.04 119.20 C 693.10 115.73 694.86 111.51 698.55 109.51 C 692.81 116.11 689.00 124.23 687.84 132.92 C 686.23 143.82 687.28 155.43 692.32 165.34 C 697.65 175.54 708.91 181.13 719.97 182.50 C 733.84 184.25 748.19 183.37 761.52 178.97 C 761.55 165.54 761.51 152.11 761.54 138.68 C 750.84 138.71 740.15 138.70 729.45 138.68 C 729.46 142.92 729.46 147.16 729.44 151.40 C 734.55 151.35 739.66 151.39 744.78 151.34 C 745.82 157.33 745.88 163.65 744.76 169.63 C 738.65 171.30 732.21 170.89 725.95 170.69 C 717.46 170.42 709.73 164.24 707.18 156.22 C 704.55 149.14 704.79 141.41 705.41 134.00 C 706.46 126.06 709.49 117.24 717.00 113.24 C 722.18 109.90 728.64 109.78 734.53 110.68 C 740.94 112.02 745.49 118.09 745.65 124.53 C 751.32 124.49 757.00 124.48 762.68 124.54 C 762.93 116.95 759.64 109.17 753.26 104.83 C 743.90 98.37 731.90 97.54 720.92 98.88 C 712.56 100.02 704.94 104.08 698.57 109.49 C 699.43 107.16 701.77 106.01 703.64 104.61 Z" />
<path fill="#38272a" opacity="0.39" d=" M 606.98 98.80 C 614.99 97.60 623.48 97.85 631.04 100.97 C 633.75 102.32 636.83 103.64 638.41 106.39 C 628.68 98.69 615.44 98.04 603.72 100.42 C 598.78 101.58 593.93 103.66 590.21 107.19 C 583.09 114.38 581.09 126.68 586.78 135.29 C 589.73 139.64 594.68 142.01 599.34 144.10 C 607.38 147.64 616.42 148.11 624.38 151.86 C 630.13 154.42 630.33 163.07 626.12 167.11 C 622.10 171.56 615.66 171.95 610.08 171.46 C 605.08 171.15 599.99 167.93 599.04 162.73 C 600.77 164.74 601.94 167.34 604.36 168.68 C 610.57 172.16 618.76 171.55 624.53 167.45 C 629.20 164.17 629.93 155.32 624.21 152.77 C 617.65 149.78 610.34 149.04 603.61 146.51 C 595.82 143.93 587.19 140.08 583.99 131.90 C 581.08 123.54 582.92 113.47 589.21 107.07 C 593.95 102.36 600.43 99.72 606.98 98.80 Z" />
<path fill="#38272a" opacity="0.39" d=" M 825.22 99.57 C 831.39 99.58 837.58 99.29 843.74 99.73 C 844.17 125.14 843.77 150.57 843.95 175.99 C 843.99 178.08 843.86 180.17 843.62 182.25 C 837.72 182.24 831.82 182.49 825.94 182.16 L 825.46 181.40 C 831.16 181.36 836.86 181.38 842.56 181.42 C 842.54 154.46 842.52 127.49 842.57 100.53 C 836.97 100.61 831.37 100.54 825.78 100.60 C 825.76 111.36 825.82 122.12 825.75 132.89 C 815.26 132.93 804.76 132.91 794.27 132.90 C 794.17 122.13 794.26 111.36 794.23 100.59 C 788.66 100.55 783.10 100.59 777.54 100.55 C 777.58 127.50 777.56 154.45 777.55 181.40 C 783.10 181.38 788.66 181.40 794.22 181.37 C 794.30 169.57 794.11 157.76 794.31 145.95 L 795.32 145.94 C 794.84 157.99 795.38 170.05 795.04 182.11 C 788.94 182.49 782.82 182.28 776.72 182.22 C 776.54 154.70 776.57 127.18 776.70 99.66 C 782.82 99.45 788.96 99.36 795.08 99.71 C 795.20 110.53 795.13 121.35 795.12 132.17 C 805.05 132.59 815.01 132.26 824.95 132.33 C 825.17 121.41 824.63 110.47 825.22 99.57 Z" />
<path fill="#38272a" opacity="0.39" d=" M 370.46 99.85 C 376.50 100.28 382.93 98.91 388.74 100.56 C 382.97 100.80 377.21 100.62 371.44 100.64 C 371.45 127.57 371.45 154.49 371.44 181.42 C 376.82 181.36 382.20 181.37 387.58 181.42 C 387.62 167.69 387.44 153.97 387.67 140.25 C 389.61 140.86 390.52 142.77 391.62 144.32 C 400.09 156.67 408.58 169.00 417.04 181.35 C 423.90 181.16 430.84 181.96 437.63 180.89 C 428.56 168.54 419.67 156.04 410.65 143.65 C 409.13 141.25 406.60 139.16 406.16 136.27 C 415.55 124.18 425.60 112.60 435.05 100.55 C 428.65 100.56 422.25 100.64 415.86 100.50 C 407.52 111.32 399.04 122.04 390.78 132.93 C 389.96 134.08 389.03 135.20 387.66 135.67 C 387.43 126.10 387.68 116.52 387.53 106.95 C 387.53 104.97 387.34 102.87 388.48 101.12 C 389.34 111.95 388.63 122.88 388.85 133.76 C 397.83 122.66 406.28 111.13 415.21 99.99 C 421.95 98.84 429.05 99.90 435.93 99.47 C 436.43 101.49 434.31 102.76 433.35 104.26 C 424.52 115.15 415.34 125.79 406.83 136.92 C 416.58 150.27 426.18 163.73 435.91 177.08 C 437.05 178.70 438.43 180.27 438.78 182.29 C 431.52 182.24 424.26 182.45 417.00 182.21 C 407.06 169.30 398.56 155.26 388.85 142.14 C 388.66 155.51 389.27 168.92 388.55 182.27 C 382.51 182.32 376.47 182.32 370.43 182.27 C 369.88 178.52 370.15 174.73 370.11 170.95 C 370.09 148.62 370.14 126.28 370.09 103.94 C 370.12 102.57 370.24 101.20 370.46 99.85 Z" />
<path fill="#38272a" opacity="0.39" d=" M 446.43 99.59 C 464.63 99.48 482.84 99.45 501.04 99.60 L 501.79 100.07 C 502.22 104.60 502.19 109.20 501.75 113.73 C 489.38 114.08 476.98 113.76 464.60 113.90 C 464.41 120.10 464.47 126.32 464.59 132.53 C 476.15 132.77 487.73 132.29 499.27 132.76 C 500.18 137.18 499.50 141.95 499.52 146.50 C 487.90 146.97 476.25 146.53 464.62 146.73 C 464.39 153.81 464.50 160.89 464.56 167.97 C 477.35 168.08 490.21 167.63 502.97 168.19 C 503.61 172.72 503.08 177.54 503.12 182.18 C 484.29 182.44 465.45 182.25 446.62 182.28 L 446.57 181.36 C 465.14 181.41 483.71 181.39 502.28 181.37 C 502.28 177.12 502.28 172.87 502.29 168.63 C 489.56 168.57 476.84 168.62 464.11 168.61 C 464.04 161.05 464.10 153.49 464.07 145.93 C 475.52 145.10 487.05 145.77 498.53 145.60 C 498.48 141.38 498.48 137.16 498.44 132.94 C 486.99 132.94 475.53 132.95 464.07 132.94 C 464.08 126.34 464.07 119.75 464.08 113.16 C 476.43 113.09 488.79 113.15 501.14 113.12 C 501.14 108.94 501.14 104.76 501.14 100.58 C 482.95 100.58 464.76 100.53 446.57 100.61 L 446.43 99.59 Z" />
<path fill="#38272a" opacity="0.39" d=" M 508.88 100.10 C 515.89 99.86 522.91 100.06 529.93 99.99 C 534.15 109.39 538.54 118.71 542.76 128.11 C 543.25 129.29 543.93 130.51 543.76 131.85 C 538.15 121.82 534.49 110.84 529.13 100.69 C 522.62 100.75 516.12 100.71 509.61 100.73 C 515.39 110.33 520.12 120.51 525.68 130.25 C 529.23 136.93 532.95 143.53 536.34 150.30 C 537.03 151.75 536.88 153.42 536.96 154.98 C 536.89 163.78 536.93 172.58 536.92 181.37 C 542.45 181.40 547.97 181.36 553.50 181.42 C 553.49 172.94 553.53 164.46 553.46 155.98 C 553.44 154.48 553.58 152.97 554.09 151.55 C 555.28 156.59 554.32 161.87 554.63 167.01 C 554.32 171.98 555.23 177.17 554.18 182.01 C 548.40 182.71 542.48 182.10 536.64 182.29 C 536.24 172.87 536.59 163.44 536.47 154.02 C 536.61 151.67 535.06 149.76 534.08 147.76 C 527.43 135.73 521.17 123.48 514.51 111.45 C 512.59 107.69 510.25 104.12 508.88 100.10 Z" />
<path fill="#38272a" opacity="0.39" d=" M 562.40 102.16 C 562.91 101.21 563.40 99.62 564.85 99.99 C 570.46 99.95 576.07 100.04 581.68 99.96 C 581.89 101.57 580.87 102.92 580.22 104.29 C 571.67 119.99 563.29 135.78 554.92 151.58 L 554.33 150.94 C 563.12 134.17 572.18 117.53 580.90 100.72 C 575.25 100.71 569.61 100.73 563.97 100.71 C 558.24 113.18 552.60 125.68 546.62 138.03 C 545.53 136.54 544.76 134.88 544.42 133.08 C 545.24 134.04 545.99 135.07 546.71 136.12 C 551.84 124.75 557.15 113.47 562.40 102.16 Z" />
<path fill="#38272a" opacity="0.39" d=" M 657.55 99.37 C 663.65 99.27 669.83 98.75 675.88 99.62 C 675.84 127.11 676.05 154.61 675.77 182.09 C 670.52 182.55 665.25 182.19 659.99 182.32 C 658.50 182.58 656.94 181.84 657.42 180.05 C 657.51 153.16 657.25 126.26 657.55 99.37 M 658.40 100.41 C 658.54 127.42 658.42 154.43 658.45 181.44 C 664.01 181.32 669.57 181.41 675.14 181.38 C 675.14 154.44 675.09 127.49 675.17 100.54 C 669.57 100.36 663.98 100.56 658.40 100.41 Z" />
<path fill="#38272a" opacity="0.39" d=" M 851.54 113.57 C 851.29 108.91 851.08 104.16 851.74 99.51 C 873.87 99.50 896.01 99.55 918.15 99.49 C 918.59 104.36 918.64 109.30 918.14 114.17 C 910.13 114.11 902.12 114.15 894.11 114.14 C 894.02 136.84 894.15 159.53 894.05 182.23 C 887.97 182.33 881.89 182.37 875.83 182.21 C 875.67 159.53 875.81 136.85 875.76 114.18 C 867.86 113.98 859.94 114.37 852.06 114.00 L 851.54 113.57 M 852.40 100.52 C 852.48 104.76 852.45 109.01 852.44 113.26 C 860.49 113.23 868.54 113.20 876.59 113.27 C 876.55 135.98 876.60 158.70 876.57 181.42 C 882.20 181.36 887.83 181.38 893.47 181.41 C 893.41 158.69 893.49 135.98 893.42 113.27 C 901.64 113.16 909.85 113.32 918.07 113.18 C 918.06 108.99 918.06 104.80 918.07 100.60 C 896.18 100.50 874.29 100.66 852.40 100.52 Z" />
<path fill="#38272a" opacity="0.39" d=" M 638.57 106.55 C 643.78 110.42 645.57 117.68 644.96 123.92 C 639.27 124.11 633.57 123.94 627.88 124.02 C 626.96 119.72 625.71 114.69 621.19 112.83 C 615.17 110.47 606.83 111.13 602.97 116.94 C 600.77 120.86 601.13 127.09 605.64 129.24 C 607.02 130.39 609.60 130.24 610.37 131.91 C 605.35 131.38 600.47 127.33 600.52 122.01 C 600.85 118.25 602.58 114.13 606.29 112.58 C 612.12 109.25 620.48 109.54 625.08 114.82 C 627.23 116.98 627.76 120.07 628.37 122.93 C 633.70 123.47 639.07 123.08 644.43 123.20 C 644.46 117.13 642.21 111.34 638.57 106.55 Z" />
<path fill="#38272a" opacity="0.39" d=" M 610.92 132.07 C 613.65 131.76 616.22 133.02 618.86 133.54 C 627.13 135.57 636.14 137.39 642.41 143.61 C 647.95 149.16 648.53 157.95 646.26 165.10 C 643.48 173.38 636.11 179.45 627.90 181.91 C 618.20 184.83 607.67 185.00 597.88 182.41 C 591.92 180.81 586.40 177.07 583.38 171.60 C 580.66 166.66 579.56 160.83 580.16 155.23 C 586.14 154.80 592.15 155.21 598.14 154.99 C 599.11 157.36 599.25 159.96 598.96 162.48 C 598.33 160.54 598.10 158.50 597.93 156.48 C 592.16 156.41 586.40 156.44 580.64 156.46 C 581.29 162.44 581.95 168.87 585.82 173.75 C 590.26 179.32 597.35 181.84 604.15 182.96 C 615.16 184.14 627.23 183.28 636.50 176.62 C 646.98 169.79 650.32 152.96 641.29 143.67 C 632.74 136.49 621.18 135.38 610.92 132.07 Z" />
<path fill="#38272a" opacity="0.39" d=" M 623.31 208.35 C 631.34 206.78 640.73 209.90 644.87 217.29 C 648.78 224.20 648.84 232.67 647.32 240.28 C 645.86 247.67 640.22 254.13 632.71 255.67 C 626.74 256.50 620.14 256.59 614.94 253.07 C 609.16 249.51 606.74 242.53 606.16 236.08 C 605.57 229.09 606.54 221.50 610.80 215.71 C 613.74 211.66 618.48 209.29 623.31 208.35 M 626.16 209.22 C 621.19 209.13 616.25 211.09 612.74 214.60 C 607.17 221.19 606.08 230.61 607.59 238.85 C 608.49 245.64 613.02 252.72 620.04 254.31 C 625.79 256.30 632.27 255.39 637.66 252.74 C 644.53 248.80 647.15 240.50 647.30 233.00 C 647.49 225.74 645.81 217.65 639.88 212.86 C 636.14 209.54 630.94 209.05 626.16 209.22 Z" />
<path fill="#38272a" opacity="0.39" d=" M 713.29 208.29 C 720.11 207.15 727.87 209.08 732.46 214.50 C 736.67 219.27 737.69 225.90 738.02 232.03 C 737.61 239.04 736.09 246.72 730.51 251.52 C 725.33 256.36 717.75 256.64 711.11 255.77 C 704.80 254.54 699.37 249.79 697.43 243.65 C 695.00 236.01 695.07 227.46 698.00 219.96 C 700.51 213.65 706.66 209.30 713.29 208.29 M 716.28 209.24 C 712.44 209.29 708.49 209.94 705.33 212.25 C 700.72 215.08 698.54 220.38 697.18 225.37 C 696.12 232.61 696.17 240.47 700.01 246.95 C 702.84 252.92 709.83 255.09 715.96 255.40 C 721.80 255.35 728.19 253.72 731.96 248.93 C 736.29 243.66 736.84 236.49 736.56 229.94 C 736.90 223.50 734.55 216.61 729.34 212.58 C 725.63 209.73 720.81 209.15 716.28 209.24 Z" />
<path fill="#38272a" opacity="0.39" d=" M 757.41 213.27 C 762.71 208.56 770.27 208.10 776.99 208.96 C 783.07 209.82 788.56 214.73 789.03 221.05 C 786.61 221.55 784.13 221.41 781.69 221.43 C 779.21 212.40 765.95 212.21 760.85 218.90 C 756.80 223.95 756.72 230.81 757.32 236.95 C 757.88 242.33 760.86 247.92 766.41 249.45 C 771.49 250.60 777.04 250.55 781.99 248.84 C 781.98 244.66 782.00 240.49 782.00 236.31 C 778.61 236.25 775.22 236.36 771.84 236.15 C 771.83 234.22 771.83 232.30 771.83 230.38 C 777.55 230.15 783.31 229.95 789.03 230.51 C 789.01 238.03 788.95 245.55 789.06 253.08 C 781.71 256.19 773.42 256.70 765.61 255.53 C 757.83 254.10 751.81 247.54 750.25 239.91 C 748.35 230.68 749.96 219.72 757.41 213.27 M 757.50 214.42 C 751.91 219.61 750.02 227.60 750.50 234.99 C 750.67 242.48 754.75 250.24 761.79 253.37 C 769.91 256.62 778.75 255.13 786.98 253.10 C 787.28 252.75 787.88 252.07 788.18 251.73 C 788.46 244.98 788.14 238.22 788.33 231.47 C 783.02 231.37 777.70 231.51 772.39 231.36 C 772.41 232.41 772.43 234.49 772.45 235.54 C 775.84 235.48 779.25 235.47 782.66 235.44 C 782.68 240.16 782.66 244.89 782.67 249.61 C 777.97 251.22 772.83 251.07 767.95 250.60 C 762.72 250.18 758.75 245.78 757.44 240.93 C 754.87 232.68 755.65 222.50 762.20 216.28 C 768.04 211.48 779.63 212.21 782.07 220.40 C 783.95 220.45 785.83 220.48 787.73 220.52 C 788.04 214.25 781.50 210.37 776.00 209.62 C 769.63 209.14 762.15 209.43 757.50 214.42 Z" />
<path fill="#38272a" opacity="0.39" d=" M 881.00 208.98 C 886.98 207.82 893.79 208.28 898.73 212.20 C 901.34 214.41 902.25 217.92 902.36 221.23 C 899.88 221.30 897.32 221.77 894.92 221.04 C 894.94 220.45 894.98 219.25 895.00 218.66 C 895.30 219.10 895.91 219.97 896.21 220.41 C 897.99 220.47 899.77 220.45 901.57 220.45 C 901.23 215.18 897.07 210.55 891.83 209.80 C 884.99 208.84 876.66 209.11 872.02 215.03 C 869.38 217.75 869.75 221.74 869.64 225.22 C 868.14 222.87 868.82 219.89 869.67 217.43 C 871.43 212.73 876.25 209.87 881.00 208.98 Z" />
<path fill="#38272a" opacity="0.39" d=" M 456.02 222.95 C 457.73 215.93 463.62 209.80 470.95 208.98 C 475.37 208.81 480.13 208.42 484.13 210.70 C 488.55 212.69 491.36 217.43 491.32 222.24 C 488.90 222.32 486.49 222.32 484.08 222.20 C 483.39 219.32 481.91 216.35 478.96 215.26 C 475.08 214.09 470.28 214.26 467.20 217.20 C 463.83 220.15 462.83 224.81 462.43 229.08 C 462.09 234.21 462.18 239.67 464.61 244.34 C 467.46 249.71 475.23 251.77 480.25 248.23 C 482.26 246.97 483.01 244.60 483.86 242.52 C 486.19 242.35 488.53 242.34 490.87 242.40 C 491.61 245.47 489.64 248.49 487.74 250.75 C 479.83 258.31 464.93 257.77 458.70 248.32 C 454.06 240.84 453.78 231.26 456.02 222.95 M 461.53 214.54 C 455.55 221.40 454.57 231.19 456.18 239.84 C 457.32 244.54 459.47 249.38 463.61 252.18 C 468.19 255.08 473.78 254.73 478.96 254.40 C 484.50 253.43 489.45 249.09 490.55 243.46 C 488.45 243.44 486.36 243.45 484.27 243.49 C 483.48 245.42 482.87 247.65 481.06 248.91 C 478.12 251.30 474.01 250.61 470.53 250.31 C 466.18 248.66 462.87 244.57 462.16 239.95 C 460.44 232.12 460.93 222.79 466.45 216.51 C 470.20 213.38 476.08 212.27 480.38 214.97 C 483.07 216.01 483.67 219.11 484.92 221.40 C 486.81 221.41 488.71 221.42 490.62 221.43 C 490.20 217.25 487.59 213.59 483.99 211.54 C 476.83 208.03 467.37 208.93 461.53 214.54 Z" />
<path fill="#38272a" opacity="0.39" d=" M 555.69 209.14 C 558.66 209.35 561.79 208.61 564.67 209.46 C 569.22 216.03 572.79 223.26 577.12 230.00 C 579.80 234.99 583.58 239.51 585.22 244.97 C 579.47 235.97 574.31 226.60 568.68 217.52 C 567.07 215.08 566.01 212.24 563.92 210.16 C 561.50 209.64 559.00 209.87 556.56 209.85 C 556.39 224.71 556.56 239.57 556.47 254.44 C 558.04 254.40 559.62 254.36 561.20 254.33 C 561.44 241.67 560.71 228.96 561.58 216.33 C 565.68 222.48 569.56 228.81 572.90 235.41 C 568.40 230.59 566.16 224.03 562.08 218.84 C 561.88 230.88 562.13 242.93 561.96 254.97 C 559.78 255.01 557.61 255.02 555.45 255.02 C 555.04 243.69 555.38 232.34 555.28 220.99 C 555.40 217.04 554.88 213.04 555.69 209.14 Z" />
<path fill="#38272a" opacity="0.39" d=" M 586.05 211.93 C 585.09 208.10 591.24 208.29 592.88 210.06 C 592.99 225.01 593.02 239.98 592.86 254.94 C 589.92 255.03 586.99 255.03 584.07 255.02 C 580.41 248.62 575.90 242.56 573.11 235.76 C 577.46 241.71 580.79 248.31 584.76 254.51 C 587.22 254.41 589.69 254.35 592.16 254.28 C 592.13 240.85 592.12 227.41 592.17 213.97 C 591.99 212.63 592.53 210.35 590.70 209.97 C 589.17 209.46 586.62 209.96 586.90 212.06 C 586.70 223.77 587.09 235.50 586.71 247.22 C 586.20 246.47 585.71 245.72 585.22 244.97 C 585.89 243.38 586.17 241.67 586.10 239.95 C 586.04 230.61 586.10 221.27 586.05 211.93 Z" />
<path fill="#38272a" opacity="0.39" d=" M 662.16 209.26 C 664.39 209.04 666.64 209.02 668.90 209.15 C 669.16 222.42 668.92 235.70 669.02 248.98 C 676.07 249.01 683.12 248.97 690.17 248.99 C 690.18 250.99 690.18 252.99 690.16 254.99 C 680.79 255.00 671.41 255.04 662.04 254.97 C 662.04 239.73 661.82 224.48 662.16 209.26 M 662.76 210.46 C 662.82 225.09 662.78 239.72 662.78 254.36 C 671.61 254.41 680.44 254.39 689.27 254.37 C 689.27 252.76 689.27 251.15 689.29 249.55 C 682.35 249.41 675.40 249.74 668.46 249.37 C 668.27 236.38 668.37 223.39 668.43 210.40 C 666.53 210.42 664.64 210.44 662.76 210.46 Z" />
<path fill="#38272a" opacity="0.39" d=" M 805.07 209.11 C 807.00 208.90 808.95 209.09 810.90 209.15 C 811.12 210.75 811.28 212.37 811.26 213.99 C 811.15 227.66 811.32 241.34 811.17 255.01 C 808.81 255.03 806.47 255.02 804.12 254.94 C 803.68 240.98 804.07 226.99 803.92 213.03 C 804.11 211.75 803.51 209.73 805.07 209.11 M 804.84 210.45 C 804.88 225.09 804.87 239.73 804.85 254.38 C 806.68 254.38 808.52 254.38 810.38 254.39 C 810.37 239.73 810.31 225.07 810.41 210.40 C 808.54 210.42 806.69 210.43 804.84 210.45 Z" />
<path fill="#38272a" opacity="0.39" d=" M 368.07 209.69 C 370.28 208.81 372.68 209.04 375.00 209.03 C 385.11 209.14 395.22 208.88 405.33 209.17 C 405.36 211.12 406.42 213.72 404.98 215.29 C 400.18 215.75 395.34 215.28 390.53 215.53 C 390.35 228.69 390.67 241.85 390.37 255.01 C 388.09 255.01 385.82 255.01 383.55 255.02 C 383.10 241.87 383.54 228.70 383.33 215.55 C 378.28 215.23 373.19 215.85 368.17 215.15 C 368.16 213.32 368.13 211.50 368.07 209.69 M 369.38 210.36 C 369.40 211.40 369.42 213.50 369.44 214.54 C 374.40 214.46 379.36 214.39 384.32 214.58 C 384.67 227.85 384.42 241.14 384.45 254.42 C 386.13 254.41 387.82 254.40 389.52 254.40 C 389.51 241.14 389.35 227.88 389.60 214.63 C 394.56 214.33 399.53 214.50 404.50 214.52 C 404.52 213.49 404.54 211.42 404.55 210.38 C 392.83 210.45 381.10 210.49 369.38 210.36 Z" />
<path fill="#38272a" opacity="0.39" d=" M 415.47 254.86 C 415.69 239.60 415.15 224.31 415.74 209.06 C 425.29 209.19 434.86 208.71 444.39 209.32 C 444.41 211.33 444.40 213.33 444.36 215.34 C 437.09 215.66 429.81 215.32 422.53 215.53 C 422.45 219.85 422.45 224.18 422.53 228.51 C 429.43 228.67 436.33 228.42 443.23 228.65 C 443.32 230.63 443.32 232.62 443.03 234.59 C 436.19 234.61 429.34 234.49 422.50 234.66 C 422.46 239.43 422.45 244.21 422.51 248.99 C 430.00 249.02 437.50 248.96 444.99 249.01 C 445.00 251.00 445.00 252.99 444.98 254.98 C 435.14 254.94 425.30 255.18 415.47 254.86 M 415.92 210.46 C 415.94 225.09 415.91 239.73 415.93 254.37 C 425.36 254.40 434.80 254.39 444.24 254.37 C 444.23 252.77 444.23 251.18 444.24 249.59 C 436.75 249.24 429.00 250.20 421.67 249.13 C 421.13 244.17 421.66 239.15 421.43 234.17 C 428.43 234.00 435.43 234.12 442.43 234.09 C 442.46 232.56 442.49 231.03 442.53 229.50 C 435.55 229.49 428.56 229.72 421.59 229.38 C 421.40 224.46 421.40 219.54 421.59 214.62 C 428.88 214.32 436.19 214.51 443.49 214.52 C 443.50 213.48 443.52 211.42 443.53 210.38 C 434.32 210.50 425.12 210.37 415.92 210.46 Z" />
<path fill="#38272a" opacity="0.39" d=" M 502.71 209.30 C 505.02 208.91 507.37 208.95 509.69 209.32 C 510.21 215.73 509.59 222.18 510.03 228.60 C 516.64 228.55 523.25 228.50 529.87 228.62 C 530.29 222.21 529.66 215.77 530.21 209.36 C 532.53 208.92 534.91 208.87 537.24 209.35 C 537.23 224.57 537.32 239.79 537.19 255.01 C 534.84 255.03 532.49 255.02 530.14 254.93 C 529.82 248.22 530.12 241.50 529.98 234.78 C 523.30 234.77 516.62 234.76 509.95 234.79 C 509.74 241.50 510.06 248.22 509.77 254.94 C 507.42 255.02 505.07 255.03 502.73 255.01 C 502.57 239.78 502.62 224.54 502.71 209.30 M 503.48 210.41 C 503.61 225.07 503.54 239.73 503.52 254.39 C 505.20 254.40 506.89 254.41 508.59 254.43 C 508.48 247.71 508.64 241.00 508.48 234.29 C 514.98 233.92 521.49 234.20 528.00 234.09 C 529.09 234.24 531.42 233.74 531.37 235.49 C 531.55 241.80 531.41 248.12 531.40 254.43 C 533.08 254.41 534.77 254.40 536.46 254.39 C 536.45 239.73 536.37 225.07 536.50 210.42 C 534.78 210.40 533.06 210.38 531.35 210.36 C 531.47 216.70 531.52 223.03 531.34 229.37 C 523.89 229.55 516.33 229.84 508.93 229.26 C 508.03 223.13 508.75 216.63 508.64 210.37 C 506.91 210.38 505.20 210.40 503.48 210.41 Z" />
<path fill="#38272a" opacity="0.39" d=" M 827.89 209.56 C 831.82 208.55 835.92 209.21 839.94 209.05 C 845.63 209.18 851.35 208.74 857.03 209.31 C 857.00 211.32 857.00 213.34 857.01 215.36 C 849.76 215.61 842.51 215.40 835.27 215.47 C 835.14 219.83 835.14 224.20 835.26 228.56 C 842.18 228.63 849.11 228.41 856.03 228.68 C 856.04 230.64 856.00 232.61 855.86 234.57 C 848.97 234.61 842.09 234.52 835.21 234.63 C 835.19 239.42 835.09 244.21 835.28 249.00 C 842.73 248.98 850.19 249.01 857.65 248.98 C 857.91 250.99 857.91 253.02 857.60 255.03 C 847.75 254.94 837.90 255.08 828.05 254.96 C 827.69 239.84 827.99 224.70 827.89 209.56 M 828.78 210.47 C 828.84 225.10 828.80 239.73 828.80 254.36 C 838.04 254.45 847.29 254.29 856.53 254.45 C 856.53 252.80 856.55 251.16 856.57 249.52 C 849.14 249.63 841.70 249.54 834.27 249.58 C 834.26 244.43 834.25 239.28 834.27 234.12 C 841.29 234.04 848.31 234.11 855.33 234.09 C 855.35 232.57 855.37 231.06 855.40 229.55 C 848.37 229.54 841.34 229.51 834.32 229.58 C 834.23 224.53 834.23 219.48 834.33 214.44 C 841.68 214.53 849.04 214.43 856.40 214.51 C 856.41 213.48 856.45 211.43 856.46 210.41 C 847.23 210.48 838.01 210.37 828.78 210.47 Z" />
<path fill="#38272a" opacity="0.39" d=" M 623.59 213.66 C 629.35 212.47 636.32 214.03 639.09 219.74 C 642.37 226.87 642.00 235.31 639.64 242.67 C 636.95 251.38 624.84 253.10 618.15 248.10 C 614.53 244.80 613.01 239.76 613.08 234.96 C 613.14 229.91 612.44 224.37 615.36 219.93 C 617.03 216.77 620.05 214.34 623.59 213.66 M 625.27 214.23 C 620.51 214.89 616.31 218.22 614.90 222.86 C 612.77 229.88 612.74 238.04 616.45 244.55 C 620.91 252.23 633.98 251.91 638.05 244.00 C 640.55 239.15 641.20 233.45 640.63 228.07 C 640.07 223.69 638.72 218.83 634.84 216.24 C 632.00 214.58 628.56 213.54 625.27 214.23 Z" />
<path fill="#38272a" opacity="0.39" d=" M 712.58 213.70 C 716.90 213.19 721.73 212.85 725.41 215.64 C 730.14 219.18 730.87 225.51 731.51 230.96 C 731.21 236.50 730.24 242.32 726.97 246.96 C 723.09 251.18 716.80 251.25 711.55 250.28 C 707.20 248.67 704.24 244.40 703.30 239.97 C 701.62 233.13 701.88 225.49 705.38 219.26 C 706.85 216.43 709.63 214.68 712.58 213.70 M 714.28 214.37 C 710.90 215.01 707.77 216.92 705.95 219.87 C 703.40 224.08 703.12 229.17 703.27 233.97 C 703.39 238.43 704.54 243.10 707.50 246.55 C 711.02 250.18 716.71 250.79 721.37 249.38 C 726.93 247.55 729.51 241.44 729.98 236.03 C 730.01 231.12 730.67 225.92 728.49 221.34 C 726.40 215.84 719.82 213.03 714.28 214.37 Z" />
<path fill="#38272a" opacity="0.39" d=" M 875.88 218.78 C 877.49 214.86 882.17 213.57 886.04 213.45 C 889.44 213.61 893.90 214.49 894.84 218.35 C 891.26 213.95 884.71 213.74 879.84 215.82 C 875.88 217.40 874.88 223.93 879.03 225.88 C 885.32 228.73 892.69 228.65 898.69 232.26 C 905.32 236.50 904.80 247.21 898.94 251.91 C 893.76 256.48 886.38 256.56 879.89 255.80 C 876.13 255.04 872.32 253.28 870.24 249.91 C 868.53 247.39 868.39 244.26 868.36 241.32 C 870.68 241.07 873.04 241.05 875.38 241.33 C 875.85 244.38 876.68 248.01 880.06 249.05 C 884.57 250.66 890.55 250.77 894.19 247.19 C 896.17 245.40 896.15 242.48 895.69 240.06 C 894.34 236.81 890.25 236.95 887.73 235.10 C 890.85 235.58 894.33 236.52 896.26 239.23 C 897.69 242.42 896.73 246.54 893.89 248.65 C 890.07 251.48 884.93 250.92 880.52 250.27 C 876.70 249.36 875.01 245.46 874.74 241.89 C 872.71 241.88 870.69 241.88 868.69 241.88 C 869.25 245.94 870.36 250.69 874.35 252.72 C 881.12 256.26 889.63 256.26 896.41 252.72 C 901.92 249.80 904.03 242.14 901.48 236.64 C 896.64 229.31 886.81 230.28 879.57 227.02 C 876.31 225.92 874.43 221.95 875.88 218.78 Z" />
<path fill="#38272a" opacity="0.39" d=" M 869.63 225.60 C 871.48 227.68 873.15 230.12 875.79 231.28 C 879.50 232.99 883.63 233.44 887.40 235.02 C 884.10 235.31 880.96 233.90 877.83 233.11 C 874.19 232.03 870.34 229.62 869.63 225.60 Z" />
</g>
<g id="#000000ff">
<path fill="#000000" opacity="1.00" d=" M 720.92 98.88 C 731.90 97.54 743.90 98.37 753.26 104.83 C 759.64 109.17 762.93 116.95 762.68 124.54 C 757.00 124.48 751.32 124.49 745.65 124.53 C 745.49 118.09 740.94 112.02 734.53 110.68 C 728.64 109.78 722.18 109.90 717.00 113.24 C 709.49 117.24 706.46 126.06 705.41 134.00 C 704.79 141.41 704.55 149.14 707.18 156.22 C 709.73 164.24 717.46 170.42 725.95 170.69 C 732.21 170.89 738.65 171.30 744.76 169.63 C 745.88 163.65 745.82 157.33 744.78 151.34 C 739.66 151.39 734.55 151.35 729.44 151.40 C 729.46 147.16 729.46 142.92 729.45 138.68 C 740.15 138.70 750.84 138.71 761.54 138.68 C 761.51 152.11 761.55 165.54 761.52 178.97 C 748.19 183.37 733.84 184.25 719.97 182.50 C 708.91 181.13 697.65 175.54 692.32 165.34 C 687.28 155.43 686.23 143.82 687.84 132.92 C 689.00 124.23 692.81 116.11 698.55 109.51 C 698.55 109.50 698.56 109.49 698.57 109.49 C 704.94 104.08 712.56 100.02 720.92 98.88 Z" />
<path fill="#000000" opacity="1.00" d=" M 603.72 100.42 C 615.44 98.04 628.68 98.69 638.41 106.39 C 638.45 106.43 638.53 106.51 638.57 106.55 C 642.21 111.34 644.46 117.13 644.43 123.20 C 639.07 123.08 633.70 123.47 628.37 122.93 C 627.76 120.07 627.23 116.98 625.08 114.82 C 620.48 109.54 612.12 109.25 606.29 112.58 C 602.58 114.13 600.85 118.25 600.52 122.01 C 600.47 127.33 605.35 131.38 610.37 131.91 L 610.92 132.07 C 621.18 135.38 632.74 136.49 641.29 143.67 C 650.32 152.96 646.98 169.79 636.50 176.62 C 627.23 183.28 615.16 184.14 604.15 182.96 C 597.35 181.84 590.26 179.32 585.82 173.75 C 581.95 168.87 581.29 162.44 580.64 156.46 C 586.40 156.44 592.16 156.41 597.93 156.48 C 598.10 158.50 598.33 160.54 598.96 162.48 L 599.04 162.73 C 599.99 167.93 605.08 171.15 610.08 171.46 C 615.66 171.95 622.10 171.56 626.12 167.11 C 630.33 163.07 630.13 154.42 624.38 151.86 C 616.42 148.11 607.38 147.64 599.34 144.10 C 594.68 142.01 589.73 139.64 586.78 135.29 C 581.09 126.68 583.09 114.38 590.21 107.19 C 593.93 103.66 598.78 101.58 603.72 100.42 Z" />
<path fill="#000000" opacity="1.00" d=" M 371.44 100.64 C 377.21 100.62 382.97 100.80 388.74 100.56 L 388.48 101.12 C 387.34 102.87 387.53 104.97 387.53 106.95 C 387.68 116.52 387.43 126.10 387.66 135.67 C 389.03 135.20 389.96 134.08 390.78 132.93 C 399.04 122.04 407.52 111.32 415.86 100.50 C 422.25 100.64 428.65 100.56 435.05 100.55 C 425.60 112.60 415.55 124.18 406.16 136.27 C 406.60 139.16 409.13 141.25 410.65 143.65 C 419.67 156.04 428.56 168.54 437.63 180.89 C 430.84 181.96 423.90 181.16 417.04 181.35 C 408.58 169.00 400.09 156.67 391.62 144.32 C 390.52 142.77 389.61 140.86 387.67 140.25 C 387.44 153.97 387.62 167.69 387.58 181.42 C 382.20 181.37 376.82 181.36 371.44 181.42 C 371.45 154.49 371.45 127.57 371.44 100.64 Z" />
<path fill="#000000" opacity="1.00" d=" M 446.57 100.61 C 464.76 100.53 482.95 100.58 501.14 100.58 C 501.14 104.76 501.14 108.94 501.14 113.12 C 488.79 113.15 476.43 113.09 464.08 113.16 C 464.07 119.75 464.08 126.34 464.07 132.94 C 475.53 132.95 486.99 132.94 498.44 132.94 C 498.48 137.16 498.48 141.38 498.53 145.60 C 487.05 145.77 475.52 145.10 464.07 145.93 C 464.10 153.49 464.04 161.05 464.11 168.61 C 476.84 168.62 489.56 168.57 502.29 168.63 C 502.28 172.87 502.28 177.12 502.28 181.37 C 483.71 181.39 465.14 181.41 446.57 181.36 C 446.63 154.44 446.64 127.52 446.57 100.61 Z" />
<path fill="#000000" opacity="1.00" d=" M 509.61 100.73 C 516.12 100.71 522.62 100.75 529.13 100.69 C 534.49 110.84 538.15 121.82 543.76 131.85 L 544.42 133.08 C 544.76 134.88 545.53 136.54 546.62 138.03 C 552.60 125.68 558.24 113.18 563.97 100.71 C 569.61 100.73 575.25 100.71 580.90 100.72 C 572.18 117.53 563.12 134.17 554.33 150.94 L 554.09 151.55 C 553.58 152.97 553.44 154.48 553.46 155.98 C 553.53 164.46 553.49 172.94 553.50 181.42 C 547.97 181.36 542.45 181.40 536.92 181.37 C 536.93 172.58 536.89 163.78 536.96 154.98 C 536.88 153.42 537.03 151.75 536.34 150.30 C 532.95 143.53 529.23 136.93 525.68 130.25 C 520.12 120.51 515.39 110.33 509.61 100.73 Z" />
<path fill="#000000" opacity="1.00" d=" M 658.40 100.41 C 663.98 100.56 669.57 100.36 675.17 100.54 C 675.09 127.49 675.14 154.44 675.14 181.38 C 669.57 181.41 664.01 181.32 658.45 181.44 C 658.42 154.43 658.54 127.42 658.40 100.41 Z" />
<path fill="#000000" opacity="1.00" d=" M 777.54 100.55 C 783.10 100.59 788.66 100.55 794.23 100.59 C 794.26 111.36 794.17 122.13 794.27 132.90 C 804.76 132.91 815.26 132.93 825.75 132.89 C 825.82 122.12 825.76 111.36 825.78 100.60 C 831.37 100.54 836.97 100.61 842.57 100.53 C 842.52 127.49 842.54 154.46 842.56 181.42 C 836.86 181.38 831.16 181.36 825.46 181.40 C 825.89 169.65 825.52 157.88 825.65 146.12 C 815.54 145.99 805.43 146.30 795.32 145.94 L 794.31 145.95 C 794.11 157.76 794.30 169.57 794.22 181.37 C 788.66 181.40 783.10 181.38 777.55 181.40 C 777.56 154.45 777.58 127.50 777.54 100.55 Z" />
<path fill="#000000" opacity="1.00" d=" M 852.40 100.52 C 874.29 100.66 896.18 100.50 918.07 100.60 C 918.06 104.80 918.06 108.99 918.07 113.18 C 909.85 113.32 901.64 113.16 893.42 113.27 C 893.49 135.98 893.41 158.69 893.47 181.41 C 887.83 181.38 882.20 181.36 876.57 181.42 C 876.60 158.70 876.55 135.98 876.59 113.27 C 868.54 113.20 860.49 113.23 852.44 113.26 C 852.45 109.01 852.48 104.76 852.40 100.52 Z" />
<path fill="#000000" opacity="1.00" d=" M 626.16 209.22 C 630.94 209.05 636.14 209.54 639.88 212.86 C 645.81 217.65 647.49 225.74 647.30 233.00 C 647.15 240.50 644.53 248.80 637.66 252.74 C 632.27 255.39 625.79 256.30 620.04 254.31 C 613.02 252.72 608.49 245.64 607.59 238.85 C 606.08 230.61 607.17 221.19 612.74 214.60 C 616.25 211.09 621.19 209.13 626.16 209.22 M 623.59 213.66 C 620.05 214.34 617.03 216.77 615.36 219.93 C 612.44 224.37 613.14 229.91 613.08 234.96 C 613.01 239.76 614.53 244.80 618.15 248.10 C 624.84 253.10 636.95 251.38 639.64 242.67 C 642.00 235.31 642.37 226.87 639.09 219.74 C 636.32 214.03 629.35 212.47 623.59 213.66 Z" />
<path fill="#000000" opacity="1.00" d=" M 716.28 209.24 C 720.81 209.15 725.63 209.73 729.34 212.58 C 734.55 216.61 736.90 223.50 736.56 229.94 C 736.84 236.49 736.29 243.66 731.96 248.93 C 728.19 253.72 721.80 255.35 715.96 255.40 C 709.83 255.09 702.84 252.92 700.01 246.95 C 696.17 240.47 696.12 232.61 697.18 225.37 C 698.54 220.38 700.72 215.08 705.33 212.25 C 708.49 209.94 712.44 209.29 716.28 209.24 M 712.58 213.70 C 709.63 214.68 706.85 216.43 705.38 219.26 C 701.88 225.49 701.62 233.13 703.30 239.97 C 704.24 244.40 707.20 248.67 711.55 250.28 C 716.80 251.25 723.09 251.18 726.97 246.96 C 730.24 242.32 731.21 236.50 731.51 230.96 C 730.87 225.51 730.14 219.18 725.41 215.64 C 721.73 212.85 716.90 213.19 712.58 213.70 Z" />
<path fill="#000000" opacity="1.00" d=" M 461.53 214.54 C 467.37 208.93 476.83 208.03 483.99 211.54 C 487.59 213.59 490.20 217.25 490.62 221.43 C 488.71 221.42 486.81 221.41 484.92 221.40 C 483.67 219.11 483.07 216.01 480.38 214.97 C 476.08 212.27 470.20 213.38 466.45 216.51 C 460.93 222.79 460.44 232.12 462.16 239.95 C 462.87 244.57 466.18 248.66 470.53 250.31 C 474.01 250.61 478.12 251.30 481.06 248.91 C 482.87 247.65 483.48 245.42 484.27 243.49 C 486.36 243.45 488.45 243.44 490.55 243.46 C 489.45 249.09 484.50 253.43 478.96 254.40 C 473.78 254.73 468.19 255.08 463.61 252.18 C 459.47 249.38 457.32 244.54 456.18 239.84 C 454.57 231.19 455.55 221.40 461.53 214.54 Z" />
<path fill="#000000" opacity="1.00" d=" M 556.56 209.85 C 559.00 209.87 561.50 209.64 563.92 210.16 C 566.01 212.24 567.07 215.08 568.68 217.52 C 574.31 226.60 579.47 235.97 585.22 244.97 C 585.71 245.72 586.20 246.47 586.71 247.22 C 587.09 235.50 586.70 223.77 586.90 212.06 C 586.62 209.96 589.17 209.46 590.70 209.97 C 592.53 210.35 591.99 212.63 592.17 213.97 C 592.12 227.41 592.13 240.85 592.16 254.28 C 589.69 254.35 587.22 254.41 584.76 254.51 C 580.79 248.31 577.46 241.71 573.11 235.76 L 572.90 235.41 C 569.56 228.81 565.68 222.48 561.58 216.33 C 560.71 228.96 561.44 241.67 561.20 254.33 C 559.62 254.36 558.04 254.40 556.47 254.44 C 556.56 239.57 556.39 224.71 556.56 209.85 Z" />
<path fill="#000000" opacity="1.00" d=" M 757.50 214.42 C 762.15 209.43 769.63 209.14 776.00 209.62 C 781.50 210.37 788.04 214.25 787.73 220.52 C 785.83 220.48 783.95 220.45 782.07 220.40 C 779.63 212.21 768.04 211.48 762.20 216.28 C 755.65 222.50 754.87 232.68 757.44 240.93 C 758.75 245.78 762.72 250.18 767.95 250.60 C 772.83 251.07 777.97 251.22 782.67 249.61 C 782.66 244.89 782.68 240.16 782.66 235.44 C 779.25 235.47 775.84 235.48 772.45 235.54 C 772.43 234.49 772.41 232.41 772.39 231.36 C 777.70 231.51 783.02 231.37 788.33 231.47 C 788.14 238.22 788.46 244.98 788.18 251.73 C 787.88 252.07 787.28 252.75 786.98 253.10 C 778.75 255.13 769.91 256.62 761.79 253.37 C 754.75 250.24 750.67 242.48 750.50 234.99 C 750.02 227.60 751.91 219.61 757.50 214.42 Z" />
<path fill="#000000" opacity="1.00" d=" M 872.02 215.03 C 876.66 209.11 884.99 208.84 891.83 209.80 C 897.07 210.55 901.23 215.18 901.57 220.45 C 899.77 220.45 897.99 220.47 896.21 220.41 C 895.91 219.97 895.30 219.10 895.00 218.66 L 894.84 218.35 C 893.90 214.49 889.44 213.61 886.04 213.45 C 882.17 213.57 877.49 214.86 875.88 218.78 C 874.43 221.95 876.31 225.92 879.57 227.02 C 886.81 230.28 896.64 229.31 901.48 236.64 C 904.03 242.14 901.92 249.80 896.41 252.72 C 889.63 256.26 881.12 256.26 874.35 252.72 C 870.36 250.69 869.25 245.94 868.69 241.88 C 870.69 241.88 872.71 241.88 874.74 241.89 C 875.01 245.46 876.70 249.36 880.52 250.27 C 884.93 250.92 890.07 251.48 893.89 248.65 C 896.73 246.54 897.69 242.42 896.26 239.23 C 894.33 236.52 890.85 235.58 887.73 235.10 L 887.40 235.02 C 883.63 233.44 879.50 232.99 875.79 231.28 C 873.15 230.12 871.48 227.68 869.63 225.60 L 869.64 225.22 C 869.75 221.74 869.38 217.75 872.02 215.03 Z" />
<path fill="#000000" opacity="1.00" d=" M 369.38 210.36 C 381.10 210.49 392.83 210.45 404.55 210.38 C 404.54 211.42 404.52 213.49 404.50 214.52 C 399.53 214.50 394.56 214.33 389.60 214.63 C 389.35 227.88 389.51 241.14 389.52 254.40 C 387.82 254.40 386.13 254.41 384.45 254.42 C 384.42 241.14 384.67 227.85 384.32 214.58 C 379.36 214.39 374.40 214.46 369.44 214.54 C 369.42 213.50 369.40 211.40 369.38 210.36 Z" />
<path fill="#000000" opacity="1.00" d=" M 415.92 210.46 C 425.12 210.37 434.32 210.50 443.53 210.38 C 443.52 211.42 443.50 213.48 443.49 214.52 C 436.19 214.51 428.88 214.32 421.59 214.62 C 421.40 219.54 421.40 224.46 421.59 229.38 C 428.56 229.72 435.55 229.49 442.53 229.50 C 442.49 231.03 442.46 232.56 442.43 234.09 C 435.43 234.12 428.43 234.00 421.43 234.17 C 421.66 239.15 421.13 244.17 421.67 249.13 C 429.00 250.20 436.75 249.24 444.24 249.59 C 444.23 251.18 444.23 252.77 444.24 254.37 C 434.80 254.39 425.36 254.40 415.93 254.37 C 415.91 239.73 415.94 225.09 415.92 210.46 Z" />
<path fill="#000000" opacity="1.00" d=" M 503.48 210.41 C 505.20 210.40 506.91 210.38 508.64 210.37 C 508.75 216.63 508.03 223.13 508.93 229.26 C 516.33 229.84 523.89 229.55 531.34 229.37 C 531.52 223.03 531.47 216.70 531.35 210.36 C 533.06 210.38 534.78 210.40 536.50 210.42 C 536.37 225.07 536.45 239.73 536.46 254.39 C 534.77 254.40 533.08 254.41 531.40 254.43 C 531.41 248.12 531.55 241.80 531.37 235.49 C 531.42 233.74 529.09 234.24 528.00 234.09 C 521.49 234.20 514.98 233.92 508.48 234.29 C 508.64 241.00 508.48 247.71 508.59 254.43 C 506.89 254.41 505.20 254.40 503.52 254.39 C 503.54 239.73 503.61 225.07 503.48 210.41 Z" />
<path fill="#000000" opacity="1.00" d=" M 662.76 210.46 C 664.64 210.44 666.53 210.42 668.43 210.40 C 668.37 223.39 668.27 236.38 668.46 249.37 C 675.40 249.74 682.35 249.41 689.29 249.55 C 689.27 251.15 689.27 252.76 689.27 254.37 C 680.44 254.39 671.61 254.41 662.78 254.36 C 662.78 239.72 662.82 225.09 662.76 210.46 Z" />
<path fill="#000000" opacity="1.00" d=" M 804.84 210.45 C 806.69 210.43 808.54 210.42 810.41 210.40 C 810.31 225.07 810.37 239.73 810.38 254.39 C 808.52 254.38 806.68 254.38 804.85 254.38 C 804.87 239.73 804.88 225.09 804.84 210.45 Z" />
<path fill="#000000" opacity="1.00" d=" M 828.78 210.47 C 838.01 210.37 847.23 210.48 856.46 210.41 C 856.45 211.43 856.41 213.48 856.40 214.51 C 849.04 214.43 841.68 214.53 834.33 214.44 C 834.23 219.48 834.23 224.53 834.32 229.58 C 841.34 229.51 848.37 229.54 855.40 229.55 C 855.37 231.06 855.35 232.57 855.33 234.09 C 848.31 234.11 841.29 234.04 834.27 234.12 C 834.25 239.28 834.26 244.43 834.27 249.58 C 841.70 249.54 849.14 249.63 856.57 249.52 C 856.55 251.16 856.53 252.80 856.53 254.45 C 847.29 254.29 838.04 254.45 828.80 254.36 C 828.80 239.73 828.84 225.10 828.78 210.47 Z" />
</g>
</svg>
