<svg width="1000" height="357" xmlns="http://www.w3.org/2000/svg">

 <g>
  <title>background</title>
  <rect fill="none" id="canvas_background" height="402" width="582" y="-1" x="-1"/>
 </g>
 <g>
  <title>Layer 1</title>
  <g id="#e90029ff">
   <path id="svg_1" d="m231.8,82.67c4.8,-2.13 10.46,-0.02 13.93,3.6c4.64,4.84 7.21,11.22 9.42,17.44c6.41,19.52 7.98,40.23 14.29,59.77c1.74,5.28 3.32,10.8 6.73,15.29c2.64,3.78 9.06,3.99 11.82,0.25c2.11,-2.53 3.03,-5.78 4.04,-8.86c2.92,-9.73 4.84,-19.84 9.09,-29.12c1.76,-3.4 4.61,-7.56 9.02,-6.91c3.97,0.28 5.75,4.46 7.17,7.6c3.85,9.77 5.43,20.24 8.57,30.23c1.27,3.94 3.43,8.18 7.58,9.67c-9.51,0.65 -19.13,-0.71 -28.55,0.98c-4.24,0.76 -7,4.42 -8.36,8.27c-4.48,12.18 -7.29,25 -13.02,36.7c-2.37,4.51 -5.92,9.63 -11.55,9.79c-5.19,0.33 -9.07,-3.86 -11.21,-8.12c-5.32,-10.29 -7.97,-21.69 -12.84,-32.17c-2.77,-5.5 -6.39,-11.06 -12.01,-13.99c-4.18,-2.17 -9.44,-1.2 -12.94,1.82c-7.27,6.06 -11.02,15.17 -13.89,23.95c-4.39,16.08 -7.53,32.5 -12.76,48.35c-1.98,5.52 -4.06,11.49 -8.83,15.26c-5.56,4.32 -14.51,3.44 -18.98,-2.07c-3.41,-4.15 -5.1,-9.36 -6.78,-14.37c-4.22,-13.79 -6.84,-27.98 -10.19,-41.98c-2.04,-8.39 -3.98,-16.94 -7.99,-24.64c-2.14,-3.99 -5.93,-7.92 -10.82,-7.56c-5.44,0.48 -8.76,5.48 -10.79,10.02c-4.45,10.29 -5.18,21.81 -9.89,32c-1.43,2.72 -3.69,5.98 -7.14,5.8c-3.21,0.38 -5.42,-2.56 -6.7,-5.09c-2.93,-6.16 -3.91,-12.99 -5.24,-19.62c-1.14,-5.39 -1.26,-11.14 -3.95,-16.08c-1.53,-3.06 -4.2,-5.34 -6.92,-7.32c7.29,0.14 14.59,0.13 21.88,0.04c4.05,0.01 7.76,-2.31 10.23,-5.4c3.35,-4.21 5.14,-9.38 6.6,-14.49c2.99,-11.34 4.99,-22.95 8.96,-34.01c1.77,-4.52 3.81,-9.13 7.29,-12.61c2.37,-2.42 5.82,-3.48 9.16,-3.42c5.08,1.25 8.51,5.63 10.72,10.11c6.74,13.15 8.5,28.02 12.6,42.05c1.91,5.69 4.37,11.66 9.24,15.44c4.26,3.33 10.91,3.25 14.73,-0.73c7.58,-7.18 11.29,-17.49 13.63,-27.44c3.35,-18.7 5.9,-37.84 13.53,-55.4c2.51,-5.12 5.63,-10.67 11.12,-13.03z" fill="#e90029"/>
  </g>
  <g id="#38272a63">
   <path id="svg_2" d="m703.64,104.61c9.65,-6.67 21.97,-8.32 33.4,-6.82c7.56,1.01 15.19,3.95 20.4,9.7c4.5,4.82 6.47,11.57 6.25,18.08c-6.26,0.2 -12.53,0.22 -18.78,0.01c-0.63,-4.15 -1.59,-8.67 -5.18,-11.31c-6.34,-4.6 -15.25,-4.02 -21.96,-0.52c-6.67,3.75 -10.05,11.27 -11.37,18.5c-1.4,9.08 -1.34,18.99 3.18,27.24c3.52,6.64 11.03,10.55 18.43,10.53c5.34,-0.08 10.83,0.52 15.98,-1.26c0.01,-5.46 0.02,-10.93 -0.01,-16.39c-5.14,-0.06 -10.28,-0.01 -15.42,-0.02c-0.88,-4.7 -0.37,-9.52 -0.31,-14.26c11.34,-0.71 22.75,-0.15 34.12,-0.29c0.5,13.79 0.03,27.61 0.24,41.41c-7.67,3.5 -16.25,4.02 -24.52,4.81c-9.98,0.43 -20.27,-0.11 -29.72,-3.61c-10.13,-3.79 -17.61,-12.99 -20.35,-23.32c-3.23,-12.45 -2.61,-26.21 3.02,-37.89c2.06,-3.47 3.82,-7.69 7.51,-9.69c-5.74,6.6 -9.55,14.72 -10.71,23.41c-1.61,10.9 -0.56,22.51 4.48,32.42c5.33,10.2 16.59,15.79 27.65,17.16c13.87,1.75 28.22,0.87 41.55,-3.53c0.03,-13.43 -0.01,-26.86 0.02,-40.29c-10.7,0.03 -21.39,0.02 -32.09,0c0.01,4.24 0.01,8.48 -0.01,12.72c5.11,-0.05 10.22,-0.01 15.34,-0.06c1.04,5.99 1.1,12.31 -0.02,18.29c-6.11,1.67 -12.55,1.26 -18.81,1.06c-8.49,-0.27 -16.22,-6.45 -18.77,-14.47c-2.63,-7.08 -2.39,-14.81 -1.77,-22.22c1.05,-7.94 4.08,-16.76 11.59,-20.76c5.18,-3.34 11.64,-3.46 17.53,-2.56c6.41,1.34 10.96,7.41 11.12,13.85c5.67,-0.04 11.35,-0.05 17.03,0.01c0.25,-7.59 -3.04,-15.37 -9.42,-19.71c-9.36,-6.46 -21.36,-7.29 -32.34,-5.95c-8.36,1.14 -15.98,5.2 -22.35,10.61c0.86,-2.33 3.2,-3.48 5.07,-4.88z" opacity="0.39" fill="#38272a"/>
   <path id="svg_3" d="m606.98,98.8c8.01,-1.2 16.5,-0.95 24.06,2.17c2.71,1.35 5.79,2.67 7.37,5.42c-9.73,-7.7 -22.97,-8.35 -34.69,-5.97c-4.94,1.16 -9.79,3.24 -13.51,6.77c-7.12,7.19 -9.12,19.49 -3.43,28.1c2.95,4.35 7.9,6.72 12.56,8.81c8.04,3.54 17.08,4.01 25.04,7.76c5.75,2.56 5.95,11.21 1.74,15.25c-4.02,4.45 -10.46,4.84 -16.04,4.35c-5,-0.31 -10.09,-3.53 -11.04,-8.73c1.73,2.01 2.9,4.61 5.32,5.95c6.21,3.48 14.4,2.87 20.17,-1.23c4.67,-3.28 5.4,-12.13 -0.32,-14.68c-6.56,-2.99 -13.87,-3.73 -20.6,-6.26c-7.79,-2.58 -16.42,-6.43 -19.62,-14.61c-2.91,-8.36 -1.07,-18.43 5.22,-24.83c4.74,-4.71 11.22,-7.35 17.77,-8.27z" opacity="0.39" fill="#38272a"/>
   <path id="svg_4" d="m825.22,99.57c6.17,0.01 12.36,-0.28 18.52,0.16c0.43,25.41 0.03,50.84 0.21,76.26c0.04,2.09 -0.09,4.18 -0.33,6.26c-5.9,-0.01 -11.8,0.24 -17.68,-0.09l-0.48,-0.76c5.7,-0.04 11.4,-0.02 17.1,0.02c-0.02,-26.96 -0.04,-53.93 0.01,-80.89c-5.6,0.08 -11.2,0.01 -16.79,0.07c-0.02,10.76 0.04,21.52 -0.03,32.29c-10.49,0.04 -20.99,0.02 -31.48,0.01c-0.1,-10.77 -0.01,-21.54 -0.04,-32.31c-5.57,-0.04 -11.13,0 -16.69,-0.04c0.04,26.95 0.02,53.9 0.01,80.85c5.55,-0.02 11.11,0 16.67,-0.03c0.08,-11.8 -0.11,-23.61 0.09,-35.42l1.01,-0.01c-0.48,12.05 0.06,24.11 -0.28,36.17c-6.1,0.38 -12.22,0.17 -18.32,0.11c-0.18,-27.52 -0.15,-55.04 -0.02,-82.56c6.12,-0.21 12.26,-0.3 18.38,0.05c0.12,10.82 0.05,21.64 0.04,32.46c9.93,0.42 19.89,0.09 29.83,0.16c0.22,-10.92 -0.32,-21.86 0.27,-32.76z" opacity="0.39" fill="#38272a"/>
   <path id="svg_5" d="m370.46,99.85c6.04,0.43 12.47,-0.94 18.28,0.71c-5.77,0.24 -11.53,0.06 -17.3,0.08c0.01,26.93 0.01,53.85 0,80.78c5.38,-0.06 10.76,-0.05 16.14,0c0.04,-13.73 -0.14,-27.45 0.09,-41.17c1.94,0.61 2.85,2.52 3.95,4.07c8.47,12.35 16.96,24.68 25.42,37.03c6.86,-0.19 13.8,0.61 20.59,-0.46c-9.07,-12.35 -17.96,-24.85 -26.98,-37.24c-1.52,-2.4 -4.05,-4.49 -4.49,-7.38c9.39,-12.09 19.44,-23.67 28.89,-35.72c-6.4,0.01 -12.8,0.09 -19.19,-0.05c-8.34,10.82 -16.82,21.54 -25.08,32.43c-0.82,1.15 -1.75,2.27 -3.12,2.74c-0.23,-9.57 0.02,-19.15 -0.13,-28.72c0,-1.98 -0.19,-4.08 0.95,-5.83c0.86,10.83 0.15,21.76 0.37,32.64c8.98,-11.1 17.43,-22.63 26.36,-33.77c6.74,-1.15 13.84,-0.09 20.72,-0.52c0.5,2.02 -1.62,3.29 -2.58,4.79c-8.83,10.89 -18.01,21.53 -26.52,32.66c9.75,13.35 19.35,26.81 29.08,40.16c1.14,1.62 2.52,3.19 2.87,5.21c-7.26,-0.05 -14.52,0.16 -21.78,-0.08c-9.94,-12.91 -18.44,-26.95 -28.15,-40.07c-0.19,13.37 0.42,26.78 -0.3,40.13c-6.04,0.05 -12.08,0.05 -18.12,0c-0.55,-3.75 -0.28,-7.54 -0.32,-11.32c-0.02,-22.33 0.03,-44.67 -0.02,-67.01c0.03,-1.37 0.15,-2.74 0.37,-4.09z" opacity="0.39" fill="#38272a"/>
   <path id="svg_6" d="m446.43,99.59c18.2,-0.11 36.41,-0.14 54.61,0.01l0.75,0.47c0.43,4.53 0.4,9.13 -0.04,13.66c-12.37,0.35 -24.77,0.03 -37.15,0.17c-0.19,6.2 -0.13,12.42 -0.01,18.63c11.56,0.24 23.14,-0.24 34.68,0.23c0.91,4.42 0.23,9.19 0.25,13.74c-11.62,0.47 -23.27,0.03 -34.9,0.23c-0.23,7.08 -0.12,14.16 -0.06,21.24c12.79,0.11 25.65,-0.34 38.41,0.22c0.64,4.53 0.11,9.35 0.15,13.99c-18.83,0.26 -37.67,0.07 -56.5,0.1l-0.05,-0.92c18.57,0.05 37.14,0.03 55.71,0.01c0,-4.25 0,-8.5 0.01,-12.74c-12.73,-0.06 -25.45,-0.01 -38.18,-0.02c-0.07,-7.56 -0.01,-15.12 -0.04,-22.68c11.45,-0.83 22.98,-0.16 34.46,-0.33c-0.05,-4.22 -0.05,-8.44 -0.09,-12.66c-11.45,0 -22.91,0.01 -34.37,0c0.01,-6.6 0,-13.19 0.01,-19.78c12.35,-0.07 24.71,-0.01 37.06,-0.04c0,-4.18 0,-8.36 0,-12.54c-18.19,0 -36.38,-0.05 -54.57,0.03l-0.14,-1.02z" opacity="0.39" fill="#38272a"/>
   <path id="svg_7" d="m508.88,100.1c7.01,-0.24 14.03,-0.04 21.05,-0.11c4.22,9.4 8.61,18.72 12.83,28.12c0.49,1.18 1.17,2.4 1,3.74c-5.61,-10.03 -9.27,-21.01 -14.63,-31.16c-6.51,0.06 -13.01,0.02 -19.52,0.04c5.78,9.6 10.51,19.78 16.07,29.52c3.55,6.68 7.27,13.28 10.66,20.05c0.69,1.45 0.54,3.12 0.62,4.68c-0.07,8.8 -0.03,17.6 -0.04,26.39c5.53,0.03 11.05,-0.01 16.58,0.05c-0.01,-8.48 0.03,-16.96 -0.04,-25.44c-0.02,-1.5 0.12,-3.01 0.63,-4.43c1.19,5.04 0.23,10.32 0.54,15.46c-0.31,4.97 0.6,10.16 -0.45,15c-5.78,0.7 -11.7,0.09 -17.54,0.28c-0.4,-9.42 -0.05,-18.85 -0.17,-28.27c0.14,-2.35 -1.41,-4.26 -2.39,-6.26c-6.65,-12.03 -12.91,-24.28 -19.57,-36.31c-1.92,-3.76 -4.26,-7.33 -5.63,-11.35z" opacity="0.39" fill="#38272a"/>
   <path id="svg_8" d="m562.4,102.16c0.51,-0.95 1,-2.54 2.45,-2.17c5.61,-0.04 11.22,0.05 16.83,-0.03c0.21,1.61 -0.81,2.96 -1.46,4.33c-8.55,15.7 -16.93,31.49 -25.3,47.29l-0.59,-0.64c8.79,-16.77 17.85,-33.41 26.57,-50.22c-5.65,-0.01 -11.29,0.01 -16.93,-0.01c-5.73,12.47 -11.37,24.97 -17.35,37.32c-1.09,-1.49 -1.86,-3.15 -2.2,-4.95c0.82,0.96 1.57,1.99 2.29,3.04c5.13,-11.37 10.44,-22.65 15.69,-33.96z" opacity="0.39" fill="#38272a"/>
   <path id="svg_9" d="m657.55,99.37c6.1,-0.1 12.28,-0.62 18.33,0.25c-0.04,27.49 0.17,54.99 -0.11,82.47c-5.25,0.46 -10.52,0.1 -15.78,0.23c-1.49,0.26 -3.05,-0.48 -2.57,-2.27c0.09,-26.89 -0.17,-53.79 0.13,-80.68m0.85,1.04c0.14,27.01 0.02,54.02 0.05,81.03c5.56,-0.12 11.12,-0.03 16.69,-0.06c0,-26.94 -0.05,-53.89 0.03,-80.84c-5.6,-0.18 -11.19,0.02 -16.77,-0.13z" opacity="0.39" fill="#38272a"/>
   <path id="svg_10" d="m851.54,113.57c-0.25,-4.66 -0.46,-9.41 0.2,-14.06c22.13,-0.01 44.27,0.04 66.41,-0.02c0.44,4.87 0.49,9.81 -0.01,14.68c-8.01,-0.06 -16.02,-0.02 -24.03,-0.03c-0.09,22.7 0.04,45.39 -0.06,68.09c-6.08,0.1 -12.16,0.14 -18.22,-0.02c-0.16,-22.68 -0.02,-45.36 -0.07,-68.03c-7.9,-0.2 -15.82,0.19 -23.7,-0.18l-0.52,-0.43m0.86,-13.05c0.08,4.24 0.05,8.49 0.04,12.74c8.05,-0.03 16.1,-0.06 24.15,0.01c-0.04,22.71 0.01,45.43 -0.02,68.15c5.63,-0.06 11.26,-0.04 16.9,-0.01c-0.06,-22.72 0.02,-45.43 -0.05,-68.14c8.22,-0.11 16.43,0.05 24.65,-0.09c-0.01,-4.19 -0.01,-8.38 0,-12.58c-21.89,-0.1 -43.78,0.06 -65.67,-0.08z" opacity="0.39" fill="#38272a"/>
   <path id="svg_11" d="m638.57,106.55c5.21,3.87 7,11.13 6.39,17.37c-5.69,0.19 -11.39,0.02 -17.08,0.1c-0.92,-4.3 -2.17,-9.33 -6.69,-11.19c-6.02,-2.36 -14.36,-1.7 -18.22,4.11c-2.2,3.92 -1.84,10.15 2.67,12.3c1.38,1.15 3.96,1 4.73,2.67c-5.02,-0.53 -9.9,-4.58 -9.85,-9.9c0.33,-3.76 2.06,-7.88 5.77,-9.43c5.83,-3.33 14.19,-3.04 18.79,2.24c2.15,2.16 2.68,5.25 3.29,8.11c5.33,0.54 10.7,0.15 16.06,0.27c0.03,-6.07 -2.22,-11.86 -5.86,-16.65z" opacity="0.39" fill="#38272a"/>
   <path id="svg_12" d="m610.92,132.07c2.73,-0.31 5.3,0.95 7.94,1.47c8.27,2.03 17.28,3.85 23.55,10.07c5.54,5.55 6.12,14.34 3.85,21.49c-2.78,8.28 -10.15,14.35 -18.36,16.81c-9.7,2.92 -20.23,3.09 -30.02,0.5c-5.96,-1.6 -11.48,-5.34 -14.5,-10.81c-2.72,-4.94 -3.82,-10.77 -3.22,-16.37c5.98,-0.43 11.99,-0.02 17.98,-0.24c0.97,2.37 1.11,4.97 0.82,7.49c-0.63,-1.94 -0.86,-3.98 -1.03,-6c-5.77,-0.07 -11.53,-0.04 -17.29,-0.02c0.65,5.98 1.31,12.41 5.18,17.29c4.44,5.57 11.53,8.09 18.33,9.21c11.01,1.18 23.08,0.32 32.35,-6.34c10.48,-6.83 13.82,-23.66 4.79,-32.95c-8.55,-7.18 -20.11,-8.29 -30.37,-11.6z" opacity="0.39" fill="#38272a"/>
   <path id="svg_13" d="m623.31,208.35c8.03,-1.57 17.42,1.55 21.56,8.94c3.91,6.91 3.97,15.38 2.45,22.99c-1.46,7.39 -7.1,13.85 -14.61,15.39c-5.97,0.83 -12.57,0.92 -17.77,-2.6c-5.78,-3.56 -8.2,-10.54 -8.78,-16.99c-0.59,-6.99 0.38,-14.58 4.64,-20.37c2.94,-4.05 7.68,-6.42 12.51,-7.36m2.85,0.87c-4.97,-0.09 -9.91,1.87 -13.42,5.38c-5.57,6.59 -6.66,16.01 -5.15,24.25c0.9,6.79 5.43,13.87 12.45,15.46c5.75,1.99 12.23,1.08 17.62,-1.57c6.87,-3.94 9.49,-12.24 9.64,-19.74c0.19,-7.26 -1.49,-15.35 -7.42,-20.14c-3.74,-3.32 -8.94,-3.81 -13.72,-3.64z" opacity="0.39" fill="#38272a"/>
   <path id="svg_14" d="m713.29,208.29c6.82,-1.14 14.58,0.79 19.17,6.21c4.21,4.77 5.23,11.4 5.56,17.53c-0.41,7.01 -1.93,14.69 -7.51,19.49c-5.18,4.84 -12.76,5.12 -19.4,4.25c-6.31,-1.23 -11.74,-5.98 -13.68,-12.12c-2.43,-7.64 -2.36,-16.19 0.57,-23.69c2.51,-6.31 8.66,-10.66 15.29,-11.67m2.99,0.95c-3.84,0.05 -7.79,0.7 -10.95,3.01c-4.61,2.83 -6.79,8.13 -8.15,13.12c-1.06,7.24 -1.01,15.1 2.83,21.58c2.83,5.97 9.82,8.14 15.95,8.45c5.84,-0.05 12.23,-1.68 16,-6.47c4.33,-5.27 4.88,-12.44 4.6,-18.99c0.34,-6.44 -2.01,-13.33 -7.22,-17.36c-3.71,-2.85 -8.53,-3.43 -13.06,-3.34z" opacity="0.39" fill="#38272a"/>
   <path id="svg_15" d="m757.41,213.27c5.3,-4.71 12.86,-5.17 19.58,-4.31c6.08,0.86 11.57,5.77 12.04,12.09c-2.42,0.5 -4.9,0.36 -7.34,0.38c-2.48,-9.03 -15.74,-9.22 -20.84,-2.53c-4.05,5.05 -4.13,11.91 -3.53,18.05c0.56,5.38 3.54,10.97 9.09,12.5c5.08,1.15 10.63,1.1 15.58,-0.61c-0.01,-4.18 0.01,-8.35 0.01,-12.53c-3.39,-0.06 -6.78,0.05 -10.16,-0.16c-0.01,-1.93 -0.01,-3.85 -0.01,-5.77c5.72,-0.23 11.48,-0.43 17.2,0.13c-0.02,7.52 -0.08,15.04 0.03,22.57c-7.35,3.11 -15.64,3.62 -23.45,2.45c-7.78,-1.43 -13.8,-7.99 -15.36,-15.62c-1.9,-9.23 -0.29,-20.19 7.16,-26.64m0.09,1.15c-5.59,5.19 -7.48,13.18 -7,20.57c0.17,7.49 4.25,15.25 11.29,18.38c8.12,3.25 16.96,1.76 25.19,-0.27c0.3,-0.35 0.9,-1.03 1.2,-1.37c0.28,-6.75 -0.04,-13.51 0.15,-20.26c-5.31,-0.1 -10.63,0.04 -15.94,-0.11c0.02,1.05 0.04,3.13 0.06,4.18c3.39,-0.06 6.8,-0.07 10.21,-0.1c0.02,4.72 0,9.45 0.01,14.17c-4.7,1.61 -9.84,1.46 -14.72,0.99c-5.23,-0.42 -9.2,-4.82 -10.51,-9.67c-2.57,-8.25 -1.79,-18.43 4.76,-24.65c5.84,-4.8 17.43,-4.07 19.87,4.12c1.88,0.05 3.76,0.08 5.66,0.12c0.31,-6.27 -6.23,-10.15 -11.73,-10.9c-6.37,-0.48 -13.85,-0.19 -18.5,4.8z" opacity="0.39" fill="#38272a"/>
   <path id="svg_16" d="m881,208.98c5.98,-1.16 12.79,-0.7 17.73,3.22c2.61,2.21 3.52,5.72 3.63,9.03c-2.48,0.07 -5.04,0.54 -7.44,-0.19c0.02,-0.59 0.06,-1.79 0.08,-2.38c0.3,0.44 0.91,1.31 1.21,1.75c1.78,0.06 3.56,0.04 5.36,0.04c-0.34,-5.27 -4.5,-9.9 -9.74,-10.65c-6.84,-0.96 -15.17,-0.69 -19.81,5.23c-2.64,2.72 -2.27,6.71 -2.38,10.19c-1.5,-2.35 -0.82,-5.33 0.03,-7.79c1.76,-4.7 6.58,-7.56 11.33,-8.45z" opacity="0.39" fill="#38272a"/>
   <path id="svg_17" d="m456.02,222.95c1.71,-7.02 7.6,-13.15 14.93,-13.97c4.42,-0.17 9.18,-0.56 13.18,1.72c4.42,1.99 7.23,6.73 7.19,11.54c-2.42,0.08 -4.83,0.08 -7.24,-0.04c-0.69,-2.88 -2.17,-5.85 -5.12,-6.94c-3.88,-1.17 -8.68,-1 -11.76,1.94c-3.37,2.95 -4.37,7.61 -4.77,11.88c-0.34,5.13 -0.25,10.59 2.18,15.26c2.85,5.37 10.62,7.43 15.64,3.89c2.01,-1.26 2.76,-3.63 3.61,-5.71c2.33,-0.17 4.67,-0.18 7.01,-0.12c0.74,3.07 -1.23,6.09 -3.13,8.35c-7.91,7.56 -22.81,7.02 -29.04,-2.43c-4.64,-7.48 -4.92,-17.06 -2.68,-25.37m5.51,-8.41c-5.98,6.86 -6.96,16.65 -5.35,25.3c1.14,4.7 3.29,9.54 7.43,12.34c4.58,2.9 10.17,2.55 15.35,2.22c5.54,-0.97 10.49,-5.31 11.59,-10.94c-2.1,-0.02 -4.19,-0.01 -6.28,0.03c-0.79,1.93 -1.4,4.16 -3.21,5.42c-2.94,2.39 -7.05,1.7 -10.53,1.4c-4.35,-1.65 -7.66,-5.74 -8.37,-10.36c-1.72,-7.83 -1.23,-17.16 4.29,-23.44c3.75,-3.13 9.63,-4.24 13.93,-1.54c2.69,1.04 3.29,4.14 4.54,6.43c1.89,0.01 3.79,0.02 5.7,0.03c-0.42,-4.18 -3.03,-7.84 -6.63,-9.89c-7.16,-3.51 -16.62,-2.61 -22.46,3z" opacity="0.39" fill="#38272a"/>
   <path id="svg_18" d="m555.69,209.14c2.97,0.21 6.1,-0.53 8.98,0.32c4.55,6.57 8.12,13.8 12.45,20.54c2.68,4.99 6.46,9.51 8.1,14.97c-5.75,-9 -10.91,-18.37 -16.54,-27.45c-1.61,-2.44 -2.67,-5.28 -4.76,-7.36c-2.42,-0.52 -4.92,-0.29 -7.36,-0.31c-0.17,14.86 0,29.72 -0.09,44.59c1.57,-0.04 3.15,-0.08 4.73,-0.11c0.24,-12.66 -0.49,-25.37 0.38,-38c4.1,6.15 7.98,12.48 11.32,19.08c-4.5,-4.82 -6.74,-11.38 -10.82,-16.57c-0.2,12.04 0.05,24.09 -0.12,36.13c-2.18,0.04 -4.35,0.05 -6.51,0.05c-0.41,-11.33 -0.07,-22.68 -0.17,-34.03c0.12,-3.95 -0.4,-7.95 0.41,-11.85z" opacity="0.39" fill="#38272a"/>
   <path id="svg_19" d="m586.05,211.93c-0.96,-3.83 5.19,-3.64 6.83,-1.87c0.11,14.95 0.14,29.92 -0.02,44.88c-2.94,0.09 -5.87,0.09 -8.79,0.08c-3.66,-6.4 -8.17,-12.46 -10.96,-19.26c4.35,5.95 7.68,12.55 11.65,18.75c2.46,-0.1 4.93,-0.16 7.4,-0.23c-0.03,-13.43 -0.04,-26.87 0.01,-40.31c-0.18,-1.34 0.36,-3.62 -1.47,-4c-1.53,-0.51 -4.08,-0.01 -3.8,2.09c-0.2,11.71 0.19,23.44 -0.19,35.16c-0.51,-0.75 -1,-1.5 -1.49,-2.25c0.67,-1.59 0.95,-3.3 0.88,-5.02c-0.06,-9.34 0,-18.68 -0.05,-28.02z" opacity="0.39" fill="#38272a"/>
   <path id="svg_20" d="m662.16,209.26c2.23,-0.22 4.48,-0.24 6.74,-0.11c0.26,13.27 0.02,26.55 0.12,39.83c7.05,0.03 14.1,-0.01 21.15,0.01c0.01,2 0.01,4 -0.01,6c-9.37,0.01 -18.75,0.05 -28.12,-0.02c0,-15.24 -0.22,-30.49 0.12,-45.71m0.6,1.2c0.06,14.63 0.02,29.26 0.02,43.9c8.83,0.05 17.66,0.03 26.49,0.01c0,-1.61 0,-3.22 0.02,-4.82c-6.94,-0.14 -13.89,0.19 -20.83,-0.18c-0.19,-12.99 -0.09,-25.98 -0.03,-38.97c-1.9,0.02 -3.79,0.04 -5.67,0.06z" opacity="0.39" fill="#38272a"/>
   <path id="svg_21" d="m805.07,209.11c1.93,-0.21 3.88,-0.02 5.83,0.04c0.22,1.6 0.38,3.22 0.36,4.84c-0.11,13.67 0.06,27.35 -0.09,41.02c-2.36,0.02 -4.7,0.01 -7.05,-0.07c-0.44,-13.96 -0.05,-27.95 -0.2,-41.91c0.19,-1.28 -0.41,-3.3 1.15,-3.92m-0.23,1.34c0.04,14.64 0.03,29.28 0.01,43.93c1.83,0 3.67,0 5.53,0.01c-0.01,-14.66 -0.07,-29.32 0.03,-43.99c-1.87,0.02 -3.72,0.03 -5.57,0.05z" opacity="0.39" fill="#38272a"/>
   <path id="svg_22" d="m368.07,209.69c2.21,-0.88 4.61,-0.65 6.93,-0.66c10.11,0.11 20.22,-0.15 30.33,0.14c0.03,1.95 1.09,4.55 -0.35,6.12c-4.8,0.46 -9.64,-0.01 -14.45,0.24c-0.18,13.16 0.14,26.32 -0.16,39.48c-2.28,0 -4.55,0 -6.82,0.01c-0.45,-13.15 -0.01,-26.32 -0.22,-39.47c-5.05,-0.32 -10.14,0.3 -15.16,-0.4c-0.01,-1.83 -0.04,-3.65 -0.1,-5.46m1.31,0.67c0.02,1.04 0.04,3.14 0.06,4.18c4.96,-0.08 9.92,-0.15 14.88,0.04c0.35,13.27 0.1,26.56 0.13,39.84c1.68,-0.01 3.37,-0.02 5.07,-0.02c-0.01,-13.26 -0.17,-26.52 0.08,-39.77c4.96,-0.3 9.93,-0.13 14.9,-0.11c0.02,-1.03 0.04,-3.1 0.05,-4.14c-11.72,0.07 -23.45,0.11 -35.17,-0.02z" opacity="0.39" fill="#38272a"/>
   <path id="svg_23" d="m415.47,254.86c0.22,-15.26 -0.32,-30.55 0.27,-45.8c9.55,0.13 19.12,-0.35 28.65,0.26c0.02,2.01 0.01,4.01 -0.03,6.02c-7.27,0.32 -14.55,-0.02 -21.83,0.19c-0.08,4.32 -0.08,8.65 0,12.98c6.9,0.16 13.8,-0.09 20.7,0.14c0.09,1.98 0.09,3.97 -0.2,5.94c-6.84,0.02 -13.69,-0.1 -20.53,0.07c-0.04,4.77 -0.05,9.55 0.01,14.33c7.49,0.03 14.99,-0.03 22.48,0.02c0.01,1.99 0.01,3.98 -0.01,5.97c-9.84,-0.04 -19.68,0.2 -29.51,-0.12m0.45,-44.4c0.02,14.63 -0.01,29.27 0.01,43.91c9.43,0.03 18.87,0.02 28.31,0c-0.01,-1.6 -0.01,-3.19 0,-4.78c-7.49,-0.35 -15.24,0.61 -22.57,-0.46c-0.54,-4.96 -0.01,-9.98 -0.24,-14.96c7,-0.17 14,-0.05 21,-0.08c0.03,-1.53 0.06,-3.06 0.1,-4.59c-6.98,-0.01 -13.97,0.22 -20.94,-0.12c-0.19,-4.92 -0.19,-9.84 0,-14.76c7.29,-0.3 14.6,-0.11 21.9,-0.1c0.01,-1.04 0.03,-3.1 0.04,-4.14c-9.21,0.12 -18.41,-0.01 -27.61,0.08z" opacity="0.39" fill="#38272a"/>
   <path id="svg_24" d="m502.71,209.3c2.31,-0.39 4.66,-0.35 6.98,0.02c0.52,6.41 -0.1,12.86 0.34,19.28c6.61,-0.05 13.22,-0.1 19.84,0.02c0.42,-6.41 -0.21,-12.85 0.34,-19.26c2.32,-0.44 4.7,-0.49 7.03,-0.01c-0.01,15.22 0.08,30.44 -0.05,45.66c-2.35,0.02 -4.7,0.01 -7.05,-0.08c-0.32,-6.71 -0.02,-13.43 -0.16,-20.15c-6.68,-0.01 -13.36,-0.02 -20.03,0.01c-0.21,6.71 0.11,13.43 -0.18,20.15c-2.35,0.08 -4.7,0.09 -7.04,0.07c-0.16,-15.23 -0.11,-30.47 -0.02,-45.71m0.77,1.11c0.13,14.66 0.06,29.32 0.04,43.98c1.68,0.01 3.37,0.02 5.07,0.04c-0.11,-6.72 0.05,-13.43 -0.11,-20.14c6.5,-0.37 13.01,-0.09 19.52,-0.2c1.09,0.15 3.42,-0.35 3.37,1.4c0.18,6.31 0.04,12.63 0.03,18.94c1.68,-0.02 3.37,-0.03 5.06,-0.04c-0.01,-14.66 -0.09,-29.32 0.04,-43.97c-1.72,-0.02 -3.44,-0.04 -5.15,-0.06c0.12,6.34 0.17,12.67 -0.01,19.01c-7.45,0.18 -15.01,0.47 -22.41,-0.11c-0.9,-6.13 -0.18,-12.63 -0.29,-18.89c-1.73,0.01 -3.44,0.03 -5.16,0.04z" opacity="0.39" fill="#38272a"/>
   <path id="svg_25" d="m827.89,209.56c3.93,-1.01 8.03,-0.35 12.05,-0.51c5.69,0.13 11.41,-0.31 17.09,0.26c-0.03,2.01 -0.03,4.03 -0.02,6.05c-7.25,0.25 -14.5,0.04 -21.74,0.11c-0.13,4.36 -0.13,8.73 -0.01,13.09c6.92,0.07 13.85,-0.15 20.77,0.12c0.01,1.96 -0.03,3.93 -0.17,5.89c-6.89,0.04 -13.77,-0.05 -20.65,0.06c-0.02,4.79 -0.12,9.58 0.07,14.37c7.45,-0.02 14.91,0.01 22.37,-0.02c0.26,2.01 0.26,4.04 -0.05,6.05c-9.85,-0.09 -19.7,0.05 -29.55,-0.07c-0.36,-15.12 -0.06,-30.26 -0.16,-45.4m0.89,0.91c0.06,14.63 0.02,29.26 0.02,43.89c9.24,0.09 18.49,-0.07 27.73,0.09c0,-1.65 0.02,-3.29 0.04,-4.93c-7.43,0.11 -14.87,0.02 -22.3,0.06c-0.01,-5.15 -0.02,-10.3 0,-15.46c7.02,-0.08 14.04,-0.01 21.06,-0.03c0.02,-1.52 0.04,-3.03 0.07,-4.54c-7.03,-0.01 -14.06,-0.04 -21.08,0.03c-0.09,-5.05 -0.09,-10.1 0.01,-15.14c7.35,0.09 14.71,-0.01 22.07,0.07c0.01,-1.03 0.05,-3.08 0.06,-4.1c-9.23,0.07 -18.45,-0.04 -27.68,0.06z" opacity="0.39" fill="#38272a"/>
   <path id="svg_26" d="m623.59,213.66c5.76,-1.19 12.73,0.37 15.5,6.08c3.28,7.13 2.91,15.57 0.55,22.93c-2.69,8.71 -14.8,10.43 -21.49,5.43c-3.62,-3.3 -5.14,-8.34 -5.07,-13.14c0.06,-5.05 -0.64,-10.59 2.28,-15.03c1.67,-3.16 4.69,-5.59 8.23,-6.27m1.68,0.57c-4.76,0.66 -8.96,3.99 -10.37,8.63c-2.13,7.02 -2.16,15.18 1.55,21.69c4.46,7.68 17.53,7.36 21.6,-0.55c2.5,-4.85 3.15,-10.55 2.58,-15.93c-0.56,-4.38 -1.91,-9.24 -5.79,-11.83c-2.84,-1.66 -6.28,-2.7 -9.57,-2.01z" opacity="0.39" fill="#38272a"/>
   <path id="svg_27" d="m712.58,213.7c4.32,-0.51 9.15,-0.85 12.83,1.94c4.73,3.54 5.46,9.87 6.1,15.32c-0.3,5.54 -1.27,11.36 -4.54,16c-3.88,4.22 -10.17,4.29 -15.42,3.32c-4.35,-1.61 -7.31,-5.88 -8.25,-10.31c-1.68,-6.84 -1.42,-14.48 2.08,-20.71c1.47,-2.83 4.25,-4.58 7.2,-5.56m1.7,0.67c-3.38,0.64 -6.51,2.55 -8.33,5.5c-2.55,4.21 -2.83,9.3 -2.68,14.1c0.12,4.46 1.27,9.13 4.23,12.58c3.52,3.63 9.21,4.24 13.87,2.83c5.56,-1.83 8.14,-7.94 8.61,-13.35c0.03,-4.91 0.69,-10.11 -1.49,-14.69c-2.09,-5.5 -8.67,-8.31 -14.21,-6.97z" opacity="0.39" fill="#38272a"/>
   <path id="svg_28" d="m875.88,218.78c1.61,-3.92 6.29,-5.21 10.16,-5.33c3.4,0.16 7.86,1.04 8.8,4.9c-3.58,-4.4 -10.13,-4.61 -15,-2.53c-3.96,1.58 -4.96,8.11 -0.81,10.06c6.29,2.85 13.66,2.77 19.66,6.38c6.63,4.24 6.11,14.95 0.25,19.65c-5.18,4.57 -12.56,4.65 -19.05,3.89c-3.76,-0.76 -7.57,-2.52 -9.65,-5.89c-1.71,-2.52 -1.85,-5.65 -1.88,-8.59c2.32,-0.25 4.68,-0.27 7.02,0.01c0.47,3.05 1.3,6.68 4.68,7.72c4.51,1.61 10.49,1.72 14.13,-1.86c1.98,-1.79 1.96,-4.71 1.5,-7.13c-1.35,-3.25 -5.44,-3.11 -7.96,-4.96c3.12,0.48 6.6,1.42 8.53,4.13c1.43,3.19 0.47,7.31 -2.37,9.42c-3.82,2.83 -8.96,2.27 -13.37,1.62c-3.82,-0.91 -5.51,-4.81 -5.78,-8.38c-2.03,-0.01 -4.05,-0.01 -6.05,-0.01c0.56,4.06 1.67,8.81 5.66,10.84c6.77,3.54 15.28,3.54 22.06,0c5.51,-2.92 7.62,-10.58 5.07,-16.08c-4.84,-7.33 -14.67,-6.36 -21.91,-9.62c-3.26,-1.1 -5.14,-5.07 -3.69,-8.24z" opacity="0.39" fill="#38272a"/>
   <path id="svg_29" d="m869.63,225.6c1.85,2.08 3.52,4.52 6.16,5.68c3.71,1.71 7.84,2.16 11.61,3.74c-3.3,0.29 -6.44,-1.12 -9.57,-1.91c-3.64,-1.08 -7.49,-3.49 -8.2,-7.51z" opacity="0.39" fill="#38272a"/>
  </g>
  <g id="#000000ff">
   <path id="svg_30" d="m720.92,98.88c10.98,-1.34 22.98,-0.51 32.34,5.95c6.38,4.34 9.67,12.12 9.42,19.71c-5.68,-0.06 -11.36,-0.05 -17.03,-0.01c-0.16,-6.44 -4.71,-12.51 -11.12,-13.85c-5.89,-0.9 -12.35,-0.78 -17.53,2.56c-7.51,4 -10.54,12.82 -11.59,20.76c-0.62,7.41 -0.86,15.14 1.77,22.22c2.55,8.02 10.28,14.2 18.77,14.47c6.26,0.2 12.7,0.61 18.81,-1.06c1.12,-5.98 1.06,-12.3 0.02,-18.29c-5.12,0.05 -10.23,0.01 -15.34,0.06c0.02,-4.24 0.02,-8.48 0.01,-12.72c10.7,0.02 21.39,0.03 32.09,0c-0.03,13.43 0.01,26.86 -0.02,40.29c-13.33,4.4 -27.68,5.28 -41.55,3.53c-11.06,-1.37 -22.32,-6.96 -27.65,-17.16c-5.04,-9.91 -6.09,-21.52 -4.48,-32.42c1.16,-8.69 4.97,-16.81 10.71,-23.41c0,-0.01 0.01,-0.02 0.02,-0.02c6.37,-5.41 13.99,-9.47 22.35,-10.61z" fill="#ffffff"/>
   <path id="svg_31" d="m603.72,100.42c11.72,-2.38 24.96,-1.73 34.69,5.97c0.04,0.04 0.12,0.12 0.16,0.16c3.64,4.79 5.89,10.58 5.86,16.65c-5.36,-0.12 -10.73,0.27 -16.06,-0.27c-0.61,-2.86 -1.14,-5.95 -3.29,-8.11c-4.6,-5.28 -12.96,-5.57 -18.79,-2.24c-3.71,1.55 -5.44,5.67 -5.77,9.43c-0.05,5.32 4.83,9.37 9.85,9.9l0.55,0.16c10.26,3.31 21.82,4.42 30.37,11.6c9.03,9.29 5.69,26.12 -4.79,32.95c-9.27,6.66 -21.34,7.52 -32.35,6.34c-6.8,-1.12 -13.89,-3.64 -18.33,-9.21c-3.87,-4.88 -4.53,-11.31 -5.18,-17.29c5.76,-0.02 11.52,-0.05 17.29,0.02c0.17,2.02 0.4,4.06 1.03,6l0.08,0.25c0.95,5.2 6.04,8.42 11.04,8.73c5.58,0.49 12.02,0.1 16.04,-4.35c4.21,-4.04 4.01,-12.69 -1.74,-15.25c-7.96,-3.75 -17,-4.22 -25.04,-7.76c-4.66,-2.09 -9.61,-4.46 -12.56,-8.81c-5.69,-8.61 -3.69,-20.91 3.43,-28.1c3.72,-3.53 8.57,-5.61 13.51,-6.77z" fill="#ffffff"/>
   <path id="svg_32" d="m371.44,100.64c5.77,-0.02 11.53,0.16 17.3,-0.08l-0.26,0.56c-1.14,1.75 -0.95,3.85 -0.95,5.83c0.15,9.57 -0.1,19.15 0.13,28.72c1.37,-0.47 2.3,-1.59 3.12,-2.74c8.26,-10.89 16.74,-21.61 25.08,-32.43c6.39,0.14 12.79,0.06 19.19,0.05c-9.45,12.05 -19.5,23.63 -28.89,35.72c0.44,2.89 2.97,4.98 4.49,7.38c9.02,12.39 17.91,24.89 26.98,37.24c-6.79,1.07 -13.73,0.27 -20.59,0.46c-8.46,-12.35 -16.95,-24.68 -25.42,-37.03c-1.1,-1.55 -2.01,-3.46 -3.95,-4.07c-0.23,13.72 -0.05,27.44 -0.09,41.17c-5.38,-0.05 -10.76,-0.06 -16.14,0c0.01,-26.93 0.01,-53.85 0,-80.78z" fill="#ffffff"/>
   <path id="svg_33" d="m446.57,100.61c18.19,-0.08 36.38,-0.03 54.57,-0.03c0,4.18 0,8.36 0,12.54c-12.35,0.03 -24.71,-0.03 -37.06,0.04c-0.01,6.59 0,13.18 -0.01,19.78c11.46,0.01 22.92,0 34.37,0c0.04,4.22 0.04,8.44 0.09,12.66c-11.48,0.17 -23.01,-0.5 -34.46,0.33c0.03,7.56 -0.03,15.12 0.04,22.68c12.73,0.01 25.45,-0.04 38.18,0.02c-0.01,4.24 -0.01,8.49 -0.01,12.74c-18.57,0.02 -37.14,0.04 -55.71,-0.01c0.06,-26.92 0.07,-53.84 0,-80.75z" fill="#ffffff"/>
   <path id="svg_34" d="m509.61,100.73c6.51,-0.02 13.01,0.02 19.52,-0.04c5.36,10.15 9.02,21.13 14.63,31.16l0.66,1.23c0.34,1.8 1.11,3.46 2.2,4.95c5.98,-12.35 11.62,-24.85 17.35,-37.32c5.64,0.02 11.28,0 16.93,0.01c-8.72,16.81 -17.78,33.45 -26.57,50.22l-0.24,0.61c-0.51,1.42 -0.65,2.93 -0.63,4.43c0.07,8.48 0.03,16.96 0.04,25.44c-5.53,-0.06 -11.05,-0.02 -16.58,-0.05c0.01,-8.79 -0.03,-17.59 0.04,-26.39c-0.08,-1.56 0.07,-3.23 -0.62,-4.68c-3.39,-6.77 -7.11,-13.37 -10.66,-20.05c-5.56,-9.74 -10.29,-19.92 -16.07,-29.52z" fill="#ffffff"/>
   <path id="svg_35" d="m658.4,100.41c5.58,0.15 11.17,-0.05 16.77,0.13c-0.08,26.95 -0.03,53.9 -0.03,80.84c-5.57,0.03 -11.13,-0.06 -16.69,0.06c-0.03,-27.01 0.09,-54.02 -0.05,-81.03z" fill="#ffffff"/>
   <path id="svg_36" d="m777.54,100.55c5.56,0.04 11.12,0 16.69,0.04c0.03,10.77 -0.06,21.54 0.04,32.31c10.49,0.01 20.99,0.03 31.48,-0.01c0.07,-10.77 0.01,-21.53 0.03,-32.29c5.59,-0.06 11.19,0.01 16.79,-0.07c-0.05,26.96 -0.03,53.93 -0.01,80.89c-5.7,-0.04 -11.4,-0.06 -17.1,-0.02c0.43,-11.75 0.06,-23.52 0.19,-35.28c-10.11,-0.13 -20.22,0.18 -30.33,-0.18l-1.01,0.01c-0.2,11.81 -0.01,23.62 -0.09,35.42c-5.56,0.03 -11.12,0.01 -16.67,0.03c0.01,-26.95 0.03,-53.9 -0.01,-80.85z" fill="#ffffff"/>
   <path id="svg_37" d="m852.4,100.52c21.89,0.14 43.78,-0.02 65.67,0.08c-0.01,4.2 -0.01,8.39 0,12.58c-8.22,0.14 -16.43,-0.02 -24.65,0.09c0.07,22.71 -0.01,45.42 0.05,68.14c-5.64,-0.03 -11.27,-0.05 -16.9,0.01c0.03,-22.72 -0.02,-45.44 0.02,-68.15c-8.05,-0.07 -16.1,-0.04 -24.15,-0.01c0.01,-4.25 0.04,-8.5 -0.04,-12.74z" fill="#ffffff"/>
   <path id="svg_38" d="m626.16,209.22c4.78,-0.17 9.98,0.32 13.72,3.64c5.93,4.79 7.61,12.88 7.42,20.14c-0.15,7.5 -2.77,15.8 -9.64,19.74c-5.39,2.65 -11.87,3.56 -17.62,1.57c-7.02,-1.59 -11.55,-8.67 -12.45,-15.46c-1.51,-8.24 -0.42,-17.66 5.15,-24.25c3.51,-3.51 8.45,-5.47 13.42,-5.38m-2.57,4.44c-3.54,0.68 -6.56,3.11 -8.23,6.27c-2.92,4.44 -2.22,9.98 -2.28,15.03c-0.07,4.8 1.45,9.84 5.07,13.14c6.69,5 18.8,3.28 21.49,-5.43c2.36,-7.36 2.73,-15.8 -0.55,-22.93c-2.77,-5.71 -9.74,-7.27 -15.5,-6.08z" fill="#ffffff"/>
   <path id="svg_39" d="m716.28,209.24c4.53,-0.09 9.35,0.49 13.06,3.34c5.21,4.03 7.56,10.92 7.22,17.36c0.28,6.55 -0.27,13.72 -4.6,18.99c-3.77,4.79 -10.16,6.42 -16,6.47c-6.13,-0.31 -13.12,-2.48 -15.95,-8.45c-3.84,-6.48 -3.89,-14.34 -2.83,-21.58c1.36,-4.99 3.54,-10.29 8.15,-13.12c3.16,-2.31 7.11,-2.96 10.95,-3.01m-3.7,4.46c-2.95,0.98 -5.73,2.73 -7.2,5.56c-3.5,6.23 -3.76,13.87 -2.08,20.71c0.94,4.43 3.9,8.7 8.25,10.31c5.25,0.97 11.54,0.9 15.42,-3.32c3.27,-4.64 4.24,-10.46 4.54,-16c-0.64,-5.45 -1.37,-11.78 -6.1,-15.32c-3.68,-2.79 -8.51,-2.45 -12.83,-1.94z" fill="#ffffff"/>
   <path id="svg_40" d="m461.53,214.54c5.84,-5.61 15.3,-6.51 22.46,-3c3.6,2.05 6.21,5.71 6.63,9.89c-1.91,-0.01 -3.81,-0.02 -5.7,-0.03c-1.25,-2.29 -1.85,-5.39 -4.54,-6.43c-4.3,-2.7 -10.18,-1.59 -13.93,1.54c-5.52,6.28 -6.01,15.61 -4.29,23.44c0.71,4.62 4.02,8.71 8.37,10.36c3.48,0.3 7.59,0.99 10.53,-1.4c1.81,-1.26 2.42,-3.49 3.21,-5.42c2.09,-0.04 4.18,-0.05 6.28,-0.03c-1.1,5.63 -6.05,9.97 -11.59,10.94c-5.18,0.33 -10.77,0.68 -15.35,-2.22c-4.14,-2.8 -6.29,-7.64 -7.43,-12.34c-1.61,-8.65 -0.63,-18.44 5.35,-25.3z" fill="#ffffff"/>
   <path id="svg_41" d="m556.56,209.85c2.44,0.02 4.94,-0.21 7.36,0.31c2.09,2.08 3.15,4.92 4.76,7.36c5.63,9.08 10.79,18.45 16.54,27.45c0.49,0.75 0.98,1.5 1.49,2.25c0.38,-11.72 -0.01,-23.45 0.19,-35.16c-0.28,-2.1 2.27,-2.6 3.8,-2.09c1.83,0.38 1.29,2.66 1.47,4c-0.05,13.44 -0.04,26.88 -0.01,40.31c-2.47,0.07 -4.94,0.13 -7.4,0.23c-3.97,-6.2 -7.3,-12.8 -11.65,-18.75l-0.21,-0.35c-3.34,-6.6 -7.22,-12.93 -11.32,-19.08c-0.87,12.63 -0.14,25.34 -0.38,38c-1.58,0.03 -3.16,0.07 -4.73,0.11c0.09,-14.87 -0.08,-29.73 0.09,-44.59z" fill="#ffffff"/>
   <path id="svg_42" d="m757.5,214.42c4.65,-4.99 12.13,-5.28 18.5,-4.8c5.5,0.75 12.04,4.63 11.73,10.9c-1.9,-0.04 -3.78,-0.07 -5.66,-0.12c-2.44,-8.19 -14.03,-8.92 -19.87,-4.12c-6.55,6.22 -7.33,16.4 -4.76,24.65c1.31,4.85 5.28,9.25 10.51,9.67c4.88,0.47 10.02,0.62 14.72,-0.99c-0.01,-4.72 0.01,-9.45 -0.01,-14.17c-3.41,0.03 -6.82,0.04 -10.21,0.1c-0.02,-1.05 -0.04,-3.13 -0.06,-4.18c5.31,0.15 10.63,0.01 15.94,0.11c-0.19,6.75 0.13,13.51 -0.15,20.26c-0.3,0.34 -0.9,1.02 -1.2,1.37c-8.23,2.03 -17.07,3.52 -25.19,0.27c-7.04,-3.13 -11.12,-10.89 -11.29,-18.38c-0.48,-7.39 1.41,-15.38 7,-20.57z" fill="#ffffff"/>
   <path id="svg_43" d="m872.02,215.03c4.64,-5.92 12.97,-6.19 19.81,-5.23c5.24,0.75 9.4,5.38 9.74,10.65c-1.8,0 -3.58,0.02 -5.36,-0.04c-0.3,-0.44 -0.91,-1.31 -1.21,-1.75l-0.16,-0.31c-0.94,-3.86 -5.4,-4.74 -8.8,-4.9c-3.87,0.12 -8.55,1.41 -10.16,5.33c-1.45,3.17 0.43,7.14 3.69,8.24c7.24,3.26 17.07,2.29 21.91,9.62c2.55,5.5 0.44,13.16 -5.07,16.08c-6.78,3.54 -15.29,3.54 -22.06,0c-3.99,-2.03 -5.1,-6.78 -5.66,-10.84c2,0 4.02,0 6.05,0.01c0.27,3.57 1.96,7.47 5.78,8.38c4.41,0.65 9.55,1.21 13.37,-1.62c2.84,-2.11 3.8,-6.23 2.37,-9.42c-1.93,-2.71 -5.41,-3.65 -8.53,-4.13l-0.33,-0.08c-3.77,-1.58 -7.9,-2.03 -11.61,-3.74c-2.64,-1.16 -4.31,-3.6 -6.16,-5.68l0.01,-0.38c0.11,-3.48 -0.26,-7.47 2.38,-10.19z" fill="#ffffff"/>
   <path id="svg_44" d="m369.38,210.36c11.72,0.13 23.45,0.09 35.17,0.02c-0.01,1.04 -0.03,3.11 -0.05,4.14c-4.97,-0.02 -9.94,-0.19 -14.9,0.11c-0.25,13.25 -0.09,26.51 -0.08,39.77c-1.7,0 -3.39,0.01 -5.07,0.02c-0.03,-13.28 0.22,-26.57 -0.13,-39.84c-4.96,-0.19 -9.92,-0.12 -14.88,-0.04c-0.02,-1.04 -0.04,-3.14 -0.06,-4.18z" fill="#ffffff"/>
   <path id="svg_45" d="m415.92,210.46c9.2,-0.09 18.4,0.04 27.61,-0.08c-0.01,1.04 -0.03,3.1 -0.04,4.14c-7.3,-0.01 -14.61,-0.2 -21.9,0.1c-0.19,4.92 -0.19,9.84 0,14.76c6.97,0.34 13.96,0.11 20.94,0.12c-0.04,1.53 -0.07,3.06 -0.1,4.59c-7,0.03 -14,-0.09 -21,0.08c0.23,4.98 -0.3,10 0.24,14.96c7.33,1.07 15.08,0.11 22.57,0.46c-0.01,1.59 -0.01,3.18 0,4.78c-9.44,0.02 -18.88,0.03 -28.31,0c-0.02,-14.64 0.01,-29.28 -0.01,-43.91z" fill="#ffffff"/>
   <path id="svg_46" d="m503.48,210.41c1.72,-0.01 3.43,-0.03 5.16,-0.04c0.11,6.26 -0.61,12.76 0.29,18.89c7.4,0.58 14.96,0.29 22.41,0.11c0.18,-6.34 0.13,-12.67 0.01,-19.01c1.71,0.02 3.43,0.04 5.15,0.06c-0.13,14.65 -0.05,29.31 -0.04,43.97c-1.69,0.01 -3.38,0.02 -5.06,0.04c0.01,-6.31 0.15,-12.63 -0.03,-18.94c0.05,-1.75 -2.28,-1.25 -3.37,-1.4c-6.51,0.11 -13.02,-0.17 -19.52,0.2c0.16,6.71 0,13.42 0.11,20.14c-1.7,-0.02 -3.39,-0.03 -5.07,-0.04c0.02,-14.66 0.09,-29.32 -0.04,-43.98z" fill="#ffffff"/>
   <path id="svg_47" d="m662.76,210.46c1.88,-0.02 3.77,-0.04 5.67,-0.06c-0.06,12.99 -0.16,25.98 0.03,38.97c6.94,0.37 13.89,0.04 20.83,0.18c-0.02,1.6 -0.02,3.21 -0.02,4.82c-8.83,0.02 -17.66,0.04 -26.49,-0.01c0,-14.64 0.04,-29.27 -0.02,-43.9z" fill="#ffffff"/>
   <path id="svg_48" d="m804.84,210.45c1.85,-0.02 3.7,-0.03 5.57,-0.05c-0.1,14.67 -0.04,29.33 -0.03,43.99c-1.86,-0.01 -3.7,-0.01 -5.53,-0.01c0.02,-14.65 0.03,-29.29 -0.01,-43.93z" fill="#ffffff"/>
   <path id="svg_49" d="m828.78,210.47c9.23,-0.1 18.45,0.01 27.68,-0.06c-0.01,1.02 -0.05,3.07 -0.06,4.1c-7.36,-0.08 -14.72,0.02 -22.07,-0.07c-0.1,5.04 -0.1,10.09 -0.01,15.14c7.02,-0.07 14.05,-0.04 21.08,-0.03c-0.03,1.51 -0.05,3.02 -0.07,4.54c-7.02,0.02 -14.04,-0.05 -21.06,0.03c-0.02,5.16 -0.01,10.31 0,15.46c7.43,-0.04 14.87,0.05 22.3,-0.06c-0.02,1.64 -0.04,3.28 -0.04,4.93c-9.24,-0.16 -18.49,0 -27.73,-0.09c0,-14.63 0.04,-29.26 -0.02,-43.89z" fill="#ffffff"/>
  </g>
 </g>
</svg>