<?xml version="1.0" encoding="UTF-8" standalone="no"?>
<!DOCTYPE svg PUBLIC "-//W3C//DTD SVG 1.1//EN"
 "http://www.w3.org/Graphics/SVG/1.1/DTD/svg11.dtd">
<!-- Generated by graphviz version 2.40.1 (20161225.0304)
 -->
<!-- Pages: 1 -->
<svg width="834pt" height="1239pt"
 viewBox="0.00 0.00 834.00 1239.00" xmlns="http://www.w3.org/2000/svg" xmlns:xlink="http://www.w3.org/1999/xlink">
<g id="graph0" class="graph" transform="scale(1 1) rotate(0) translate(4 1235)">
<polygon fill="#ffffff" stroke="transparent" points="-4,4 -4,-1235 830,-1235 830,4 -4,4"/>
<!-- WAIT_BEACON -->
<g id="node1" class="node">
<title>WAIT_BEACON</title>
<path fill="#e9967a" stroke="#ff0000" d="M565.5,-1227C565.5,-1227 474.5,-1227 474.5,-1227 468.5,-1227 462.5,-1221 462.5,-1215 462.5,-1215 462.5,-1186 462.5,-1186 462.5,-1180 468.5,-1174 474.5,-1174 474.5,-1174 565.5,-1174 565.5,-1174 571.5,-1174 577.5,-1180 577.5,-1186 577.5,-1186 577.5,-1215 577.5,-1215 577.5,-1221 571.5,-1227 565.5,-1227"/>
<path fill="none" stroke="#ff0000" d="M569.5,-1231C569.5,-1231 470.5,-1231 470.5,-1231 464.5,-1231 458.5,-1225 458.5,-1219 458.5,-1219 458.5,-1182 458.5,-1182 458.5,-1176 464.5,-1170 470.5,-1170 470.5,-1170 569.5,-1170 569.5,-1170 575.5,-1170 581.5,-1176 581.5,-1182 581.5,-1182 581.5,-1219 581.5,-1219 581.5,-1225 575.5,-1231 569.5,-1231"/>
<text text-anchor="start" x="470.5" y="-1211.8" font-family="Times,serif" font-size="14.00" fill="#000000">WAIT_BEACON</text>
<text text-anchor="start" x="470.5" y="-1196.8" font-family="Times,serif" font-size="14.00" fill="#000000">&#45; enter:</text>
<text text-anchor="middle" x="520" y="-1181.8" font-family="Times,serif" font-size="14.00" fill="#000000"> &#160;+ iteration</text>
</g>
<!-- PROBE -->
<g id="node2" class="node">
<title>PROBE</title>
<path fill="#ffffff" stroke="#000000" d="M439.5,-1119C439.5,-1119 306.5,-1119 306.5,-1119 300.5,-1119 294.5,-1113 294.5,-1107 294.5,-1107 294.5,-1063 294.5,-1063 294.5,-1057 300.5,-1051 306.5,-1051 306.5,-1051 439.5,-1051 439.5,-1051 445.5,-1051 451.5,-1057 451.5,-1063 451.5,-1063 451.5,-1107 451.5,-1107 451.5,-1113 445.5,-1119 439.5,-1119"/>
<text text-anchor="start" x="302.5" y="-1103.8" font-family="Times,serif" font-size="14.00" fill="#000000">PROBE</text>
<text text-anchor="start" x="302.5" y="-1088.8" font-family="Times,serif" font-size="14.00" fill="#000000">&#45; enter:</text>
<text text-anchor="start" x="302.5" y="-1073.8" font-family="Times,serif" font-size="14.00" fill="#000000"> &#160;+ send_probe_request</text>
<text text-anchor="middle" x="373" y="-1058.8" font-family="Times,serif" font-size="14.00" fill="#000000">&#45; timeout(0.5s) &#160;&#45;&gt; (retry)</text>
</g>
<!-- WAIT_BEACON&#45;&gt;PROBE -->
<g id="edge1" class="edge">
<title>WAIT_BEACON&#45;&gt;PROBE</title>
<path fill="none" stroke="#000000" d="M472.4825,-1169.8352C464.1814,-1164.1004 455.7334,-1158.0138 448,-1152 437.566,-1143.8861 426.7444,-1134.712 416.6769,-1125.8143"/>
<polygon fill="#000000" stroke="#000000" points="418.9338,-1123.1373 409.1441,-1119.0862 414.2708,-1128.3581 418.9338,-1123.1373"/>
<text text-anchor="middle" x="514.5" y="-1140.8" font-family="Times,serif" font-size="14.00" fill="#000000">update [receive_beacon]</text>
</g>
<!-- PROBE&#45;&gt;PROBE -->
<g id="edge2" class="edge">
<title>PROBE&#45;&gt;PROBE</title>
<path fill="none" stroke="#000000" d="M451.5715,-1094.813C505.9541,-1097.7866 559.5,-1094.5156 559.5,-1085 559.5,-1076.0791 512.4382,-1072.6466 461.7456,-1074.7026"/>
<polygon fill="#000000" stroke="#000000" points="461.3938,-1071.2153 451.5715,-1075.187 461.7267,-1078.2074 461.3938,-1071.2153"/>
<text text-anchor="middle" x="572.5" y="-1081.3" font-family="Times,serif" font-size="14.00" fill="#000000">retry</text>
</g>
<!-- AUTHENTICATION -->
<g id="node3" class="node">
<title>AUTHENTICATION</title>
<path fill="#ffffff" stroke="#000000" d="M439,-1000C439,-1000 273,-1000 273,-1000 267,-1000 261,-994 261,-988 261,-988 261,-944 261,-944 261,-938 267,-932 273,-932 273,-932 439,-932 439,-932 445,-932 451,-938 451,-944 451,-944 451,-988 451,-988 451,-994 445,-1000 439,-1000"/>
<text text-anchor="start" x="269" y="-984.8" font-family="Times,serif" font-size="14.00" fill="#000000">AUTHENTICATION</text>
<text text-anchor="start" x="269" y="-969.8" font-family="Times,serif" font-size="14.00" fill="#000000">&#45; enter:</text>
<text text-anchor="start" x="269" y="-954.8" font-family="Times,serif" font-size="14.00" fill="#000000"> &#160;+ send_authentication_request</text>
<text text-anchor="middle" x="356" y="-939.8" font-family="Times,serif" font-size="14.00" fill="#000000">&#45; timeout(0.5s) &#160;&#45;&gt; (retry)</text>
</g>
<!-- PROBE&#45;&gt;AUTHENTICATION -->
<g id="edge3" class="edge">
<title>PROBE&#45;&gt;AUTHENTICATION</title>
<path fill="none" stroke="#000000" d="M368.1285,-1050.8994C366.3146,-1038.2021 364.2293,-1023.6051 362.3051,-1010.1357"/>
<polygon fill="#000000" stroke="#000000" points="365.7514,-1009.5101 360.8722,-1000.1056 358.8217,-1010.5001 365.7514,-1009.5101"/>
<text text-anchor="middle" x="472.5" y="-1021.8" font-family="Times,serif" font-size="14.00" fill="#000000">update [receive_probe_response] | skip</text>
</g>
<!-- AUTHENTICATION&#45;&gt;AUTHENTICATION -->
<g id="edge4" class="edge">
<title>AUTHENTICATION&#45;&gt;AUTHENTICATION</title>
<path fill="none" stroke="#000000" d="M451.0196,-976.2371C506.7942,-978.4182 559,-975.0059 559,-966 559,-957.5394 512.9246,-954.0155 461.1004,-955.4282"/>
<polygon fill="#000000" stroke="#000000" points="460.8979,-951.9329 451.0196,-955.7629 461.1302,-958.9291 460.8979,-951.9329"/>
<text text-anchor="middle" x="572" y="-962.3" font-family="Times,serif" font-size="14.00" fill="#000000">retry</text>
</g>
<!-- ASSOCIATION -->
<g id="node4" class="node">
<title>ASSOCIATION</title>
<path fill="#ffffff" stroke="#000000" d="M415.5,-881C415.5,-881 266.5,-881 266.5,-881 260.5,-881 254.5,-875 254.5,-869 254.5,-869 254.5,-825 254.5,-825 254.5,-819 260.5,-813 266.5,-813 266.5,-813 415.5,-813 415.5,-813 421.5,-813 427.5,-819 427.5,-825 427.5,-825 427.5,-869 427.5,-869 427.5,-875 421.5,-881 415.5,-881"/>
<text text-anchor="start" x="262.5" y="-865.8" font-family="Times,serif" font-size="14.00" fill="#000000">ASSOCIATION</text>
<text text-anchor="start" x="262.5" y="-850.8" font-family="Times,serif" font-size="14.00" fill="#000000">&#45; enter:</text>
<text text-anchor="start" x="262.5" y="-835.8" font-family="Times,serif" font-size="14.00" fill="#000000"> &#160;+ send_association_request</text>
<text text-anchor="middle" x="341" y="-820.8" font-family="Times,serif" font-size="14.00" fill="#000000">&#45; timeout(0.5s) &#160;&#45;&gt; (retry)</text>
</g>
<!-- AUTHENTICATION&#45;&gt;ASSOCIATION -->
<g id="edge5" class="edge">
<title>AUTHENTICATION&#45;&gt;ASSOCIATION</title>
<path fill="none" stroke="#000000" d="M351.7016,-931.8994C350.1011,-919.2021 348.2611,-904.6051 346.5633,-891.1357"/>
<polygon fill="#000000" stroke="#000000" points="350.0222,-890.5894 345.299,-881.1056 343.0772,-891.4648 350.0222,-890.5894"/>
<text text-anchor="middle" x="463" y="-902.8" font-family="Times,serif" font-size="14.00" fill="#000000">update [receive_authentication_response]</text>
</g>
<!-- ASSOCIATION&#45;&gt;ASSOCIATION -->
<g id="edge6" class="edge">
<title>ASSOCIATION&#45;&gt;ASSOCIATION</title>
<path fill="none" stroke="#000000" d="M427.7492,-857.0502C482.7704,-859.5967 535.5,-856.2466 535.5,-847 535.5,-838.3313 489.1556,-834.8451 438.0265,-836.5414"/>
<polygon fill="#000000" stroke="#000000" points="437.6024,-833.0554 427.7492,-836.9498 437.8804,-840.0499 437.6024,-833.0554"/>
<text text-anchor="middle" x="548.5" y="-843.3" font-family="Times,serif" font-size="14.00" fill="#000000">retry</text>
</g>
<!-- EAP_START -->
<g id="node5" class="node">
<title>EAP_START</title>
<path fill="#ffffff" stroke="#000000" d="M145.5,-762C145.5,-762 42.5,-762 42.5,-762 36.5,-762 30.5,-756 30.5,-750 30.5,-750 30.5,-721 30.5,-721 30.5,-715 36.5,-709 42.5,-709 42.5,-709 145.5,-709 145.5,-709 151.5,-709 157.5,-715 157.5,-721 157.5,-721 157.5,-750 157.5,-750 157.5,-756 151.5,-762 145.5,-762"/>
<text text-anchor="start" x="38.5" y="-746.8" font-family="Times,serif" font-size="14.00" fill="#000000">EAP_START</text>
<text text-anchor="start" x="38.5" y="-731.8" font-family="Times,serif" font-size="14.00" fill="#000000">&#45; enter:</text>
<text text-anchor="middle" x="94" y="-716.8" font-family="Times,serif" font-size="14.00" fill="#000000"> &#160;+ send_eapol_start</text>
</g>
<!-- ASSOCIATION&#45;&gt;EAP_START -->
<g id="edge7" class="edge">
<title>ASSOCIATION&#45;&gt;EAP_START</title>
<path fill="none" stroke="#000000" d="M254.1842,-813.9004C239.3402,-807.8537 224.1499,-801.4195 210,-795 190.9568,-786.3606 170.55,-776.2073 152.2444,-766.7581"/>
<polygon fill="#000000" stroke="#000000" points="153.6502,-763.5443 143.1628,-762.0397 150.4229,-769.756 153.6502,-763.5443"/>
<text text-anchor="middle" x="234.5" y="-783.8" font-family="Times,serif" font-size="14.00" fill="#000000">start_eap</text>
</g>
<!-- WPA_MSG_1 -->
<g id="node6" class="node">
<title>WPA_MSG_1</title>
<path fill="#ffffff" stroke="#000000" d="M378,-363C378,-363 304,-363 304,-363 298,-363 292,-357 292,-351 292,-351 292,-339 292,-339 292,-333 298,-327 304,-327 304,-327 378,-327 378,-327 384,-327 390,-333 390,-339 390,-339 390,-351 390,-351 390,-357 384,-363 378,-363"/>
<text text-anchor="middle" x="341" y="-341.3" font-family="Times,serif" font-size="14.00" fill="#000000">WPA_MSG_1</text>
</g>
<!-- ASSOCIATION&#45;&gt;WPA_MSG_1 -->
<g id="edge8" class="edge">
<title>ASSOCIATION&#45;&gt;WPA_MSG_1</title>
<path fill="none" stroke="#000000" d="M341,-812.8404C341,-790.7729 341,-761.4392 341,-735.5 341,-735.5 341,-735.5 341,-432 341,-412.5475 341,-390.6484 341,-373.6877"/>
<polygon fill="#000000" stroke="#000000" points="344.5001,-373.3305 341,-363.3306 337.5001,-373.3306 344.5001,-373.3305"/>
<text text-anchor="middle" x="445.5" y="-575.8" font-family="Times,serif" font-size="14.00" fill="#000000">update [receive_association_response]</text>
</g>
<!-- EAP_IDENTITY -->
<g id="node7" class="node">
<title>EAP_IDENTITY</title>
<path fill="#ffffff" stroke="#000000" d="M128,-658C128,-658 12,-658 12,-658 6,-658 0,-652 0,-646 0,-646 0,-617 0,-617 0,-611 6,-605 12,-605 12,-605 128,-605 128,-605 134,-605 140,-611 140,-617 140,-617 140,-646 140,-646 140,-652 134,-658 128,-658"/>
<text text-anchor="start" x="8" y="-642.8" font-family="Times,serif" font-size="14.00" fill="#000000">EAP_IDENTITY</text>
<text text-anchor="start" x="8" y="-627.8" font-family="Times,serif" font-size="14.00" fill="#000000">&#45; enter:</text>
<text text-anchor="middle" x="70" y="-612.8" font-family="Times,serif" font-size="14.00" fill="#000000"> &#160;+ send_eap_response</text>
</g>
<!-- EAP_START&#45;&gt;EAP_IDENTITY -->
<g id="edge9" class="edge">
<title>EAP_START&#45;&gt;EAP_IDENTITY</title>
<path fill="none" stroke="#000000" d="M62.0669,-708.7103C57.5525,-703.3431 53.5767,-697.3746 51,-691 47.9998,-683.5777 48.3103,-675.4878 50.2715,-667.7328"/>
<polygon fill="#000000" stroke="#000000" points="53.6193,-668.7586 53.5135,-658.1643 46.9895,-666.5123 53.6193,-668.7586"/>
<text text-anchor="middle" x="155" y="-679.8" font-family="Times,serif" font-size="14.00" fill="#000000">update [receive_eap_identity_request]</text>
</g>
<!-- WPA_MSG_2 -->
<g id="node10" class="node">
<title>WPA_MSG_2</title>
<path fill="#ffffff" stroke="#000000" d="M435.5,-276C435.5,-276 292.5,-276 292.5,-276 286.5,-276 280.5,-270 280.5,-264 280.5,-264 280.5,-220 280.5,-220 280.5,-214 286.5,-208 292.5,-208 292.5,-208 435.5,-208 435.5,-208 441.5,-208 447.5,-214 447.5,-220 447.5,-220 447.5,-264 447.5,-264 447.5,-270 441.5,-276 435.5,-276"/>
<text text-anchor="start" x="288.5" y="-260.8" font-family="Times,serif" font-size="14.00" fill="#000000">WPA_MSG_2</text>
<text text-anchor="start" x="288.5" y="-245.8" font-family="Times,serif" font-size="14.00" fill="#000000">&#45; enter:</text>
<text text-anchor="start" x="288.5" y="-230.8" font-family="Times,serif" font-size="14.00" fill="#000000"> &#160;+ send_wpa_handshake_2</text>
<text text-anchor="middle" x="364" y="-215.8" font-family="Times,serif" font-size="14.00" fill="#000000">&#45; timeout(0.5s) &#160;&#45;&gt; (retry)</text>
</g>
<!-- WPA_MSG_1&#45;&gt;WPA_MSG_2 -->
<g id="edge13" class="edge">
<title>WPA_MSG_1&#45;&gt;WPA_MSG_2</title>
<path fill="none" stroke="#000000" d="M345.1119,-326.5857C347.6281,-315.3175 350.9626,-300.3848 354.129,-286.205"/>
<polygon fill="#000000" stroke="#000000" points="357.6272,-286.5987 356.3907,-276.0763 350.7955,-285.0731 357.6272,-286.5987"/>
<text text-anchor="middle" x="449.5" y="-297.8" font-family="Times,serif" font-size="14.00" fill="#000000">update [receive_wpa_handshake_1]</text>
</g>
<!-- EAP_CHALLANGE -->
<g id="node8" class="node">
<title>EAP_CHALLANGE</title>
<path fill="#ffffff" stroke="#000000" d="M132,-554C132,-554 16,-554 16,-554 10,-554 4,-548 4,-542 4,-542 4,-513 4,-513 4,-507 10,-501 16,-501 16,-501 132,-501 132,-501 138,-501 144,-507 144,-513 144,-513 144,-542 144,-542 144,-548 138,-554 132,-554"/>
<text text-anchor="start" x="12" y="-538.8" font-family="Times,serif" font-size="14.00" fill="#000000">EAP_CHALLANGE</text>
<text text-anchor="start" x="12" y="-523.8" font-family="Times,serif" font-size="14.00" fill="#000000">&#45; enter:</text>
<text text-anchor="middle" x="74" y="-508.8" font-family="Times,serif" font-size="14.00" fill="#000000"> &#160;+ send_eap_response</text>
</g>
<!-- EAP_IDENTITY&#45;&gt;EAP_CHALLANGE -->
<g id="edge10" class="edge">
<title>EAP_IDENTITY&#45;&gt;EAP_CHALLANGE</title>
<path fill="none" stroke="#000000" d="M51.122,-604.9574C46.0846,-594.8082 42.8205,-583.0233 46,-572 46.8577,-569.0263 47.9794,-566.0597 49.2801,-563.1505"/>
<polygon fill="#000000" stroke="#000000" points="52.4667,-564.6074 53.9399,-554.1155 46.2454,-561.3987 52.4667,-564.6074"/>
<text text-anchor="middle" x="126" y="-575.8" font-family="Times,serif" font-size="14.00" fill="#000000">update [receive_eap_request]</text>
</g>
<!-- EAP_SUCCESS -->
<g id="node9" class="node">
<title>EAP_SUCCESS</title>
<path fill="#ffffff" stroke="#000000" d="M154.5,-450C154.5,-450 71.5,-450 71.5,-450 65.5,-450 59.5,-444 59.5,-438 59.5,-438 59.5,-426 59.5,-426 59.5,-420 65.5,-414 71.5,-414 71.5,-414 154.5,-414 154.5,-414 160.5,-414 166.5,-420 166.5,-426 166.5,-426 166.5,-438 166.5,-438 166.5,-444 160.5,-450 154.5,-450"/>
<text text-anchor="middle" x="113" y="-428.3" font-family="Times,serif" font-size="14.00" fill="#000000">EAP_SUCCESS</text>
</g>
<!-- EAP_CHALLANGE&#45;&gt;EAP_SUCCESS -->
<g id="edge11" class="edge">
<title>EAP_CHALLANGE&#45;&gt;EAP_SUCCESS</title>
<path fill="none" stroke="#000000" d="M82.6083,-500.8684C86.1649,-490.4995 90.5053,-478.5875 95,-468 96.2168,-465.1337 97.5554,-462.1744 98.9366,-459.2414"/>
<polygon fill="#000000" stroke="#000000" points="102.1537,-460.6296 103.3962,-450.1078 95.8634,-457.5582 102.1537,-460.6296"/>
<text text-anchor="middle" x="177" y="-471.8" font-family="Times,serif" font-size="14.00" fill="#000000">update [finish_eap_challange]</text>
</g>
<!-- EAP_SUCCESS&#45;&gt;WPA_MSG_1 -->
<g id="edge12" class="edge">
<title>EAP_SUCCESS&#45;&gt;WPA_MSG_1</title>
<path fill="none" stroke="#000000" d="M99.9798,-413.6995C94.153,-403.0938 90.1624,-390.0842 98,-381 109.8749,-367.2362 213.7184,-355.8377 281.7599,-349.7589"/>
<polygon fill="#000000" stroke="#000000" points="282.2827,-353.2266 291.9382,-348.8652 281.6704,-346.2534 282.2827,-353.2266"/>
<text text-anchor="middle" x="178.5" y="-384.8" font-family="Times,serif" font-size="14.00" fill="#000000">update [receive_eap_success]</text>
</g>
<!-- WPA_MSG_2&#45;&gt;WPA_MSG_2 -->
<g id="edge14" class="edge">
<title>WPA_MSG_2&#45;&gt;WPA_MSG_2</title>
<path fill="none" stroke="#000000" d="M447.6684,-251.9663C502.4646,-254.6678 555.5,-251.3457 555.5,-242 555.5,-233.2384 508.8869,-229.771 457.9095,-231.5977"/>
<polygon fill="#000000" stroke="#000000" points="457.5104,-228.1115 447.6684,-232.0337 457.8082,-235.1051 457.5104,-228.1115"/>
<text text-anchor="middle" x="568.5" y="-238.3" font-family="Times,serif" font-size="14.00" fill="#000000">retry</text>
</g>
<!-- WPA_MSG_4 -->
<g id="node11" class="node">
<title>WPA_MSG_4</title>
<path fill="#ffffff" stroke="#000000" d="M443.5,-157C443.5,-157 300.5,-157 300.5,-157 294.5,-157 288.5,-151 288.5,-145 288.5,-145 288.5,-101 288.5,-101 288.5,-95 294.5,-89 300.5,-89 300.5,-89 443.5,-89 443.5,-89 449.5,-89 455.5,-95 455.5,-101 455.5,-101 455.5,-145 455.5,-145 455.5,-151 449.5,-157 443.5,-157"/>
<text text-anchor="start" x="296.5" y="-141.8" font-family="Times,serif" font-size="14.00" fill="#000000">WPA_MSG_4</text>
<text text-anchor="start" x="296.5" y="-126.8" font-family="Times,serif" font-size="14.00" fill="#000000">&#45; enter:</text>
<text text-anchor="start" x="296.5" y="-111.8" font-family="Times,serif" font-size="14.00" fill="#000000"> &#160;+ send_wpa_handshake_4</text>
<text text-anchor="middle" x="372" y="-96.8" font-family="Times,serif" font-size="14.00" fill="#000000">&#45; timeout(0.5s) &#160;&#45;&gt; (retry)</text>
</g>
<!-- WPA_MSG_2&#45;&gt;WPA_MSG_4 -->
<g id="edge15" class="edge">
<title>WPA_MSG_2&#45;&gt;WPA_MSG_4</title>
<path fill="none" stroke="#000000" d="M366.2925,-207.8994C367.1461,-195.2021 368.1274,-180.6051 369.0329,-167.1357"/>
<polygon fill="#000000" stroke="#000000" points="372.5285,-167.3179 369.7072,-157.1056 365.5442,-166.8483 372.5285,-167.3179"/>
<text text-anchor="middle" x="466.5" y="-178.8" font-family="Times,serif" font-size="14.00" fill="#000000">update [receive_wpa_handshake_3]</text>
</g>
<!-- WPA_MSG_4&#45;&gt;WPA_MSG_4 -->
<g id="edge16" class="edge">
<title>WPA_MSG_4&#45;&gt;WPA_MSG_4</title>
<path fill="none" stroke="#000000" d="M455.6684,-132.9663C510.4646,-135.6678 563.5,-132.3457 563.5,-123 563.5,-114.2384 516.8869,-110.771 465.9095,-112.5977"/>
<polygon fill="#000000" stroke="#000000" points="465.5104,-109.1115 455.6684,-113.0337 465.8082,-116.1051 465.5104,-109.1115"/>
<text text-anchor="middle" x="576.5" y="-119.3" font-family="Times,serif" font-size="14.00" fill="#000000">retry</text>
</g>
<!-- CONNECTED -->
<g id="node12" class="node">
<title>CONNECTED</title>
<path fill="#ffffff" stroke="#000000" d="M602,-38C602,-38 432,-38 432,-38 426,-38 420,-32 420,-26 420,-26 420,-12 420,-12 420,-6 426,0 432,0 432,0 602,0 602,0 608,0 614,-6 614,-12 614,-12 614,-26 614,-26 614,-32 608,-38 602,-38"/>
<text text-anchor="start" x="428" y="-22.8" font-family="Times,serif" font-size="14.00" fill="#000000">CONNECTED</text>
<text text-anchor="middle" x="517" y="-7.8" font-family="Times,serif" font-size="14.00" fill="#000000">&#45; timeout(1s) &#160;&#45;&gt; (max_timeout)</text>
</g>
<!-- WPA_MSG_4&#45;&gt;CONNECTED -->
<g id="edge17" class="edge">
<title>WPA_MSG_4&#45;&gt;CONNECTED</title>
<path fill="none" stroke="#000000" d="M419.4784,-88.9465C439.8198,-74.3569 463.1564,-57.6189 481.9002,-44.175"/>
<polygon fill="#000000" stroke="#000000" points="484.0757,-46.9219 490.1617,-38.2495 479.9959,-41.2337 484.0757,-46.9219"/>
<text text-anchor="middle" x="479.5" y="-59.8" font-family="Times,serif" font-size="14.00" fill="#000000">update</text>
</g>
<!-- CONNECTED&#45;&gt;WAIT_BEACON -->
<g id="edge18" class="edge">
<title>CONNECTED&#45;&gt;WAIT_BEACON</title>
<path fill="none" stroke="#000000" d="M582.7392,-38.0592C621.4914,-53.7737 663,-80.5205 663,-123 663,-1085 663,-1085 663,-1085 663,-1126.0405 626.9132,-1154.9947 590.996,-1173.6489"/>
<polygon fill="#000000" stroke="#000000" points="589.29,-1170.5882 581.8902,-1178.1706 592.4034,-1176.8577 589.29,-1170.5882"/>
<text text-anchor="middle" x="699.5" y="-575.8" font-family="Times,serif" font-size="14.00" fill="#000000">max_timeout</text>
</g>
<!-- CONNECTED&#45;&gt;CONNECTED -->
<g id="edge19" class="edge">
<title>CONNECTED&#45;&gt;CONNECTED</title>
<path fill="none" stroke="#000000" d="M614.018,-26.7968C669.9409,-28.388 722,-25.7891 722,-19 722,-12.622 676.0541,-9.9421 624.1227,-10.9602"/>
<polygon fill="#000000" stroke="#000000" points="623.9309,-7.4637 614.018,-11.2032 624.0993,-14.4617 623.9309,-7.4637"/>
<text text-anchor="middle" x="774" y="-15.3" font-family="Times,serif" font-size="14.00" fill="#000000">update [connected]</text>
</g>
</g>
</svg>
